<svg width="40" height="40" viewBox="0 0 40 40" fill="none" xmlns="http://www.w3.org/2000/svg">
<g clip-path="url(#clip0_616_8206)">
<path d="M29.0035 0H15.0944C13.931 0 12.9845 0.946484 12.9845 2.11V18.243C12.8607 18.4114 12.6546 18.6837 12.4529 18.9502C11.7059 19.937 10.5771 21.4284 9.90389 22.4881C8.57639 24.5812 8.55076 26.6727 9.81834 29.4817C9.82717 29.5013 9.83686 29.5205 9.84732 29.5394C9.84732 29.5394 11.4344 32.4097 11.5025 32.5354C11.9032 33.2757 12.5738 34.5148 12.5313 35.4887C12.5308 35.5 12.5306 35.5113 12.5306 35.5227V37.8325C12.5306 39.0277 13.5029 40 14.6981 40H21.7578C22.9529 40 23.9253 39.0277 23.9253 37.8325L23.9187 35.8088C23.919 35.0297 24.0369 34.6193 24.1858 34.1C24.2876 33.7454 24.4029 33.3434 24.4856 32.7988C24.4877 32.7848 24.4895 32.7707 24.4908 32.7565C24.6064 31.557 24.2947 30.3986 23.9647 29.1723C23.7774 28.4763 23.5776 27.7337 23.4346 26.9122H29.0036C30.167 26.9122 31.1135 25.9657 31.1135 24.8022V16.965C31.1135 16.5336 30.7637 16.1838 30.3322 16.1838C29.9008 16.1838 29.551 16.5336 29.551 16.965V24.8021C29.551 25.104 29.3054 25.3496 29.0036 25.3496H27.1606V1.5625H29.0035C29.3053 1.5625 29.5509 1.80812 29.5509 2.11V9.94719C29.5509 10.3786 29.9008 10.7284 30.3322 10.7284C30.7636 10.7284 31.1134 10.3786 31.1134 9.94719V2.11C31.1134 0.946484 30.1669 0 29.0035 0V0ZM21.7577 38.4375H14.698C14.3701 38.4375 14.093 38.1604 14.093 37.8325V35.5386C14.1467 34.1384 13.3522 32.6703 12.8766 31.7916C12.8115 31.6715 11.2294 28.81 11.2294 28.81C10.1905 26.4949 10.1895 24.9552 11.2231 23.3255C11.6756 22.6131 12.3622 21.6727 12.9845 20.8409V24.8022C12.9845 25.9657 13.931 26.9122 15.0944 26.9122H17.5994V29.5191C17.5994 29.9505 17.9492 30.3004 18.3807 30.3004C18.8122 30.3004 19.1619 29.9505 19.1619 29.5191V21.2922C19.1619 20.5873 19.7353 20.0139 20.4401 20.0139C20.783 20.0139 21.1065 20.1494 21.3511 20.3954C21.5913 20.637 21.7226 20.9539 21.7205 21.2875C21.7189 21.5552 21.7148 23.3169 21.6835 24.1345C21.6558 24.8576 21.6864 25.5302 21.7529 26.1581C21.7544 26.2037 21.8151 26.6665 21.8426 26.8477C22.0001 27.8819 22.2422 28.7847 22.4558 29.5782C22.7583 30.7024 23.0199 31.6744 22.9374 32.5858C22.8701 33.0197 22.7796 33.3352 22.6838 33.6689C22.5227 34.2305 22.3561 34.8113 22.3561 35.8127C22.3561 35.8155 22.3561 35.8182 22.3562 35.8209L22.3627 37.8323C22.3627 38.1604 22.0857 38.4375 21.7577 38.4375ZM25.5981 25.3497H23.2547C23.2346 24.9806 23.2815 21.5625 23.283 21.2968C23.2875 20.544 22.9949 19.8327 22.4591 19.2938C21.9191 18.7505 21.202 18.4514 20.4401 18.4514C18.8737 18.4514 17.5994 19.7258 17.5994 21.2922V25.3497H15.0944C14.7925 25.3497 14.5469 25.1041 14.5469 24.8022V2.11C14.5469 1.80812 14.7926 1.5625 15.0944 1.5625H25.5981V25.3497Z" fill="#322E27"/>
<path d="M30.3316 12.6758C29.9002 12.6758 29.5504 13.0256 29.5504 13.457V13.4592C29.5504 13.8906 29.9002 14.2394 30.3316 14.2394C30.763 14.2394 31.1129 13.8884 31.1129 13.457C31.1129 13.0255 30.763 12.6758 30.3316 12.6758Z" fill="#322E27"/>
</g>
<defs>
<clipPath id="clip0_616_8206">
<rect width="40" height="40" fill="white"/>
</clipPath>
</defs>
</svg>
