<svg width="26" height="40" viewBox="0 0 26 40" fill="none" xmlns="http://www.w3.org/2000/svg">
<path d="M25.35 28.8473V25.7323C25.35 25.728 25.35 25.7237 25.3499 25.7194C25.3143 23.5526 24.499 21.9494 22.8575 20.8182C21.4908 19.8764 19.7708 19.413 18.1075 18.9648C17.6335 18.8371 17.1781 18.7145 16.7402 18.5836V16.9304C18.5224 15.726 19.6965 13.6865 19.6965 11.3777V10.5409C19.7872 10.4727 19.8745 10.398 19.9571 10.3157C20.833 9.43977 20.909 8.06258 20.1859 7.09906V3.9657C20.1858 1.77898 18.4069 0 16.2202 0H9.78272C7.59608 0 5.81709 1.77898 5.81709 3.9657V7.09914C5.09404 8.06266 5.17006 9.43984 6.04686 10.3167C6.12912 10.3988 6.21615 10.4731 6.30647 10.5411V11.3777C6.30647 13.6861 7.48053 15.7253 9.26279 16.9298V18.5836C8.8249 18.7145 8.36943 18.8372 7.89553 18.9648C6.23217 19.413 4.51217 19.8764 3.14553 20.8182C1.50396 21.9494 0.688731 23.5526 0.653106 25.7194C0.653027 25.7237 0.653027 25.728 0.653027 25.7323V28.8473C0.289199 29.2147 0.0639648 29.7197 0.0639648 30.2765V32.4998C0.0639648 33.6205 0.975684 34.5323 2.09639 34.5323H4.04287C4.14537 34.5323 4.2467 34.527 4.3467 34.5174V38.158C4.3467 39.1738 5.17201 40.0001 6.18647 40.0001H9.49264C9.92412 40.0001 10.2739 39.6503 10.2739 39.2188C10.2739 38.7873 9.92412 38.4376 9.49264 38.4376H6.18647C6.03615 38.4376 5.9092 38.3096 5.9092 38.158V33.9166C6.68373 33.3434 7.18693 32.4236 7.18693 31.3882C7.18693 30.3528 6.68365 29.433 5.9092 28.8598V26.5095C5.9092 26.3592 6.03615 26.2323 6.18647 26.2323H9.83193V30.9873C9.83193 31.2762 9.99131 31.5414 10.2462 31.677C10.3613 31.7383 10.4873 31.7686 10.6131 31.7686C10.7659 31.7686 10.9183 31.7237 11.0497 31.6352L13.0023 30.3196L14.9529 31.6351C15.1924 31.7966 15.5015 31.8128 15.7565 31.6772C16.0115 31.5416 16.1709 31.2763 16.1709 30.9874V26.2323H19.8164C19.9679 26.2323 20.0958 26.3593 20.0958 26.5096V28.8583C19.3201 29.4314 18.8159 30.352 18.8159 31.3883C18.8159 32.4246 19.3201 33.3452 20.0958 33.9183V38.1581C20.0958 38.3096 19.9679 38.4377 19.8164 38.4377H16.5102C16.0787 38.4377 15.729 38.7874 15.729 39.2189C15.729 39.6504 16.0787 40.0002 16.5102 40.0002H19.8164C20.832 40.0002 21.6583 39.1738 21.6583 38.1581V34.5177C21.7576 34.5273 21.8582 34.5325 21.96 34.5325H23.9065C25.0272 34.5325 25.9389 33.6208 25.9389 32.5V30.2766C25.939 29.7198 25.7138 29.2147 25.35 28.8473V28.8473ZM7.37959 3.9657C7.37959 2.64055 8.45764 1.5625 9.78272 1.5625H16.2202C17.5453 1.5625 18.6233 2.64055 18.6233 3.9657V5.7157C16.986 4.57055 15.0412 3.95344 13.0015 3.95344C10.9617 3.95344 9.01693 4.57047 7.37959 5.7157V3.9657ZM7.15076 9.21094C6.80029 8.86039 6.80029 8.29016 7.15068 7.93961L7.15084 7.93953C8.71365 6.37672 10.7915 5.51602 13.0015 5.51602C15.2115 5.51602 17.2893 6.37672 18.8521 7.93953L18.8522 7.93961C19.2027 8.29016 19.2026 8.86047 18.8532 9.21C18.5028 9.55914 17.9327 9.55922 17.5833 9.21094C16.3593 7.98695 14.7326 7.31289 13.0027 7.31289C11.2729 7.31289 9.64615 7.98695 8.42311 9.21C8.07201 9.55984 7.50092 9.55984 7.15076 9.21094V9.21094ZM7.86897 11.3777V11.0316C8.47131 11.0116 9.06779 10.7734 9.52693 10.3158C10.4558 9.38695 11.6901 8.87539 13.0026 8.87539C14.3151 8.87539 15.5494 9.38688 16.4792 10.3167C16.9372 10.7732 17.5325 11.0109 18.134 11.0312V11.3778C18.134 14.2086 15.832 16.5116 13.0026 16.5116C10.1719 16.5115 7.86897 14.2085 7.86897 11.3777V11.3777ZM15.1776 17.7091V19.1574C15.1776 20.3568 14.2019 21.3326 13.0026 21.3326C11.802 21.3326 10.8253 20.3568 10.8253 19.1574V17.7086C11.5084 17.9442 12.2405 18.074 13.0026 18.074C13.7639 18.074 14.4951 17.9444 15.1776 17.7091ZM2.09639 32.9698C1.83725 32.9698 1.62646 32.759 1.62646 32.4998V30.2765C1.62646 30.0173 1.83725 29.8066 2.09639 29.8066H4.04287C4.91498 29.8066 5.62451 30.5161 5.62451 31.3882C5.62451 32.2603 4.91498 32.9698 4.04287 32.9698H2.09639ZM14.6085 29.5182L13.4394 28.7298C13.1755 28.5517 12.8299 28.5516 12.566 28.7296L11.3944 29.519V26.2323H14.6085V29.5182ZM19.8165 24.6698H6.18647C5.17201 24.6698 4.3467 25.4951 4.3467 26.5095V28.259C4.2467 28.2494 4.14537 28.2441 4.04287 28.2441H2.21545V25.7391C2.24389 24.0941 2.82123 22.9392 4.03209 22.1048C5.17779 21.3153 6.766 20.8873 8.30193 20.4735C8.66607 20.3754 9.03647 20.2749 9.40326 20.1695C9.84615 21.74 11.2915 22.8949 13.0025 22.8949C14.7126 22.8949 16.157 21.7401 16.5996 20.1696C16.9663 20.2749 17.3368 20.3754 17.7008 20.4735C19.2368 20.8873 20.8251 21.3152 21.9707 22.1048C23.1816 22.9392 23.759 24.0941 23.7873 25.7391V28.244H21.9601C21.8583 28.244 21.7577 28.2493 21.6584 28.2588V26.5095C21.6585 25.4951 20.8322 24.6698 19.8165 24.6698ZM24.3765 32.4999C24.3765 32.7591 24.1658 32.9699 23.9066 32.9699H21.9601C21.7073 32.9699 21.4691 32.9088 21.2571 32.803C21.2385 32.7926 21.2192 32.7833 21.1997 32.7744C20.7107 32.505 20.3785 31.9848 20.3785 31.3883C20.3785 30.5162 21.088 29.8066 21.9601 29.8066H23.9065C24.1657 29.8066 24.3765 30.0174 24.3765 30.2766V32.4999H24.3765Z" fill="#322E27"/>
</svg>
