<svg width="40" height="40" viewBox="0 0 40 40" fill="none" xmlns="http://www.w3.org/2000/svg">
<path d="M13.3358 30.8242C11.724 31.0076 10.5622 32.4694 10.7458 34.0828C10.8348 34.8631 11.2226 35.5624 11.8379 36.0518C12.3639 36.4702 13.0019 36.6921 13.6635 36.6921C13.7759 36.6921 13.8888 36.6857 14.002 36.6728C15.6137 36.4893 16.7757 35.0276 16.5921 33.4142C16.4083 31.8026 14.9476 30.6411 13.3358 30.8242ZM13.825 35.1203C13.4594 35.1621 13.0991 35.0585 12.8104 34.8289C12.5218 34.5993 12.3398 34.2715 12.2982 33.9059C12.212 33.1487 12.7568 32.4626 13.5124 32.3766C13.5652 32.3706 13.6176 32.3677 13.6695 32.3677C14.361 32.3677 14.9594 32.8882 15.0395 33.591C15.1257 34.3482 14.5809 35.0343 13.825 35.1203Z" fill="#322E27"/>
<path d="M26.2413 27.1326L21.5223 27.6708C21.0936 27.7196 20.7857 28.1068 20.8346 28.5354C20.88 28.9341 21.2179 29.2282 21.6098 29.2282C21.6393 29.2282 21.6692 29.2266 21.6992 29.2232L26.4182 28.685C26.8469 28.6362 27.1549 28.249 27.106 27.8204C27.0571 27.3917 26.67 27.0833 26.2413 27.1326Z" fill="#322E27"/>
<path d="M28.1063 33.771C27.6748 33.771 27.325 34.1208 27.325 34.5522C27.325 34.9837 27.6748 35.3335 28.1063 35.3335H28.1107C28.5422 35.3335 28.8898 34.9837 28.8898 34.5522C28.8898 34.1208 28.5377 33.771 28.1063 33.771Z" fill="#322E27"/>
<path d="M39.7064 31.4828C39.5485 30.1038 38.2984 29.1097 36.9196 29.2674L36.5752 29.3067L35.1646 16.925C35.1412 16.7192 35.0369 16.531 34.8748 16.4021C34.7126 16.2731 34.5058 16.2141 34.3 16.2373L29.3604 16.8004L27.9587 4.5081C27.9353 4.30224 27.831 4.11412 27.6688 3.98514C27.5066 3.85623 27.3001 3.79709 27.094 3.82037L14.8022 5.2223L14.5924 3.38124C14.4778 2.37274 13.9746 1.46736 13.1755 0.831981C12.3767 0.196834 11.3812 -0.089958 10.3729 0.0247278L2.50881 0.919401C1.12945 1.07737 0.13564 2.32774 0.293528 3.70647C0.450791 5.08363 1.70007 6.07877 3.08052 5.92425L9.72698 5.16473L10.8916 15.3786L7.63701 19.6394C7.51443 19.7999 7.45873 20.0016 7.48162 20.2022L8.60926 30.0869C7.72591 31.3068 7.27639 32.8462 7.45943 34.4568C7.64795 36.1153 8.47137 37.601 9.77815 38.6403C10.8952 39.5288 12.251 40 13.6579 40C13.8963 40 14.1362 39.9865 14.3767 39.9591C16.6331 39.701 18.4736 38.2655 19.3554 36.3375L24.7112 35.7272C25.1399 35.6784 25.4478 35.2912 25.3989 34.8625C25.3501 34.4339 24.9635 34.1259 24.5342 34.1748L19.8436 34.7093C19.9278 34.169 19.9434 33.6093 19.8783 33.0402C19.8686 32.9553 19.8563 32.8711 19.8433 32.7871L35.964 30.949C35.9681 30.9486 35.972 30.9488 35.976 30.9483C35.9806 30.9478 35.9848 30.9467 35.9894 30.9461L37.0968 30.8199C37.6193 30.7598 38.0942 31.1372 38.154 31.6603C38.2138 32.1834 37.8367 32.6578 37.3138 32.7177L31.5031 33.3798C31.0745 33.4287 30.7665 33.8158 30.8154 34.2445C30.8609 34.6432 31.1988 34.9374 31.5906 34.9374C31.6201 34.9374 31.65 34.9357 31.6801 34.9323L35.7227 34.4716L36.0159 36.5921C36.0705 36.9867 36.4083 37.2724 36.7956 37.2724C36.8316 37.2724 36.868 37.27 36.9045 37.2649C37.3358 37.2053 37.6369 36.8075 37.5773 36.3763L37.2894 34.2931L37.4911 34.2701C38.8701 34.1121 39.8639 32.8619 39.7064 31.4828ZM22.1036 5.96214L22.4223 8.75912L21.4002 8.27171C21.1307 8.1432 20.8114 8.17952 20.5777 8.36546L19.6898 9.07162L19.3709 6.27377L22.1036 5.96214ZM17.8186 6.45088L18.297 10.6487C18.3292 10.9309 18.5118 11.1733 18.7742 11.282C18.8706 11.3219 18.9721 11.3414 19.0731 11.3414C19.2469 11.3414 19.4189 11.2835 19.5595 11.1717L21.1683 9.89215L23.0219 10.776C23.2782 10.8983 23.5807 10.8718 23.8119 10.7068C24.0431 10.5419 24.1666 10.2645 24.1344 9.98239L23.656 5.78511L26.4948 5.46136L27.8079 16.9772L16.2916 18.29L14.9792 6.7747L17.8186 6.45088ZM27.1788 22.2165L25.8093 21.5633C25.5398 21.4347 25.2205 21.4711 24.9867 21.657L23.798 22.6023L23.3943 19.0529L26.7738 18.6677L27.1788 22.2165ZM2.90497 4.37161C2.38068 4.43021 1.90561 4.05232 1.84585 3.52889C1.78593 3.00593 2.16311 2.53164 2.68591 2.4718L6.78858 2.00501L7.00546 3.90303L2.90497 4.37161ZM10.326 3.52366L8.55793 3.72569L8.34122 1.82845L10.5495 1.5772C11.1433 1.5097 11.7308 1.67931 12.2031 2.05493C12.6753 2.43047 12.9725 2.96414 13.04 3.55795L14.8261 19.228C14.8266 19.2332 14.8265 19.2383 14.8271 19.2434C14.8277 19.2486 14.8288 19.2535 14.8296 19.2586L15.8117 27.8755C15.1839 27.6458 14.5221 27.518 13.8463 27.5002L11.1909 4.21146C11.1675 4.00553 11.0631 3.8174 10.9009 3.6885C10.7387 3.55936 10.5318 3.50038 10.326 3.52366ZM11.147 17.6184L12.291 27.6523C11.4534 27.8414 10.6867 28.1966 10.021 28.6775L9.06964 20.3378L11.147 17.6184ZM14.1996 38.4066C12.955 38.548 11.7305 38.1967 10.7507 37.4174C9.7708 36.6381 9.15331 35.5239 9.01199 34.2803C8.72012 31.7121 10.5713 29.3839 13.1388 29.0902C14.3825 28.949 15.6073 29.3003 16.5871 30.0795C17.567 30.8589 18.1845 31.973 18.3259 33.2172C18.6195 35.7848 16.7683 38.1128 14.1996 38.4066ZM19.4073 31.2642C19.0052 30.3316 18.377 29.5068 17.5595 28.8567C17.5367 28.8386 17.513 28.8219 17.4901 28.8042L16.4686 19.8425L21.8419 19.2301L22.4047 24.1794C22.4369 24.4616 22.6196 24.7041 22.8818 24.8129C22.9783 24.8528 23.0799 24.8724 23.1808 24.8724C23.3547 24.8724 23.5266 24.8144 23.6672 24.7026L25.5771 23.1838L27.7784 24.2337C28.0348 24.356 28.3372 24.3295 28.5685 24.1646C28.7997 23.9997 28.9232 23.7222 28.891 23.4401L28.3262 18.4909L33.7006 17.8783L35.0228 29.4836L19.4073 31.2642Z" fill="#322E27"/>
</svg>
