<svg width="40" height="33" viewBox="0 0 40 33" fill="none" xmlns="http://www.w3.org/2000/svg">
<path d="M8.73053 24.4067C8.39974 24.1295 7.90701 24.1731 7.62998 24.5039L5.67646 26.8363L4.97045 26.2381C4.64123 25.9592 4.14834 25.9999 3.86935 26.3292C3.59045 26.6584 3.63123 27.1513 3.96045 27.4302L5.26592 28.5363C5.40756 28.6563 5.5867 28.7214 5.77092 28.7214C5.7931 28.7214 5.81529 28.7205 5.83756 28.7185C6.04474 28.7008 6.23639 28.6013 6.3699 28.4418L8.82795 25.5072C9.10482 25.1764 9.06123 24.6838 8.73053 24.4067Z" fill="#322E27"/>
<path d="M38.3455 12.357H37.2227C36.2822 12.3136 35.5259 11.5126 34.6508 10.5857C34.066 9.96641 33.4399 9.30328 32.6857 8.8118V2.13336C32.6857 0.957031 31.7287 0 30.5524 0H5.07008C3.89375 0 2.9368 0.957031 2.9368 2.13336V7.55274C2.9368 7.98422 3.28656 8.33399 3.71805 8.33399C4.14953 8.33399 4.4993 7.98422 4.4993 7.55274V2.13336C4.4993 1.82398 4.7607 1.5625 5.07008 1.5625H13.7153V8.47477C13.7153 8.75875 13.8695 9.02039 14.1178 9.15813C14.2358 9.22352 14.3662 9.25602 14.4965 9.25602C14.6405 9.25602 14.7841 9.21625 14.9106 9.13727L17.8122 7.32375L20.7116 9.13719C20.9525 9.28773 21.256 9.29586 21.5045 9.1582C21.753 9.02055 21.9072 8.75891 21.9072 8.47484V1.5625H30.5525C30.8619 1.5625 31.1233 1.82391 31.1233 2.13336V8.14945C30.8691 8.09625 30.6023 8.0643 30.3202 8.0593C30.3156 8.05922 30.3111 8.05922 30.3065 8.05922H25.9046C25.9005 8.05922 25.8966 8.05922 25.8925 8.0593C24.9507 8.07391 24.4668 8.50086 24.2266 8.85641C23.8539 9.40828 23.8194 10.1557 24.1291 10.9602C24.2012 11.148 24.2891 11.3256 24.3903 11.4926H18.4662C17.1934 11.4926 16.1578 12.5281 16.1578 13.8009C16.1578 14.0627 16.2016 14.3144 16.282 14.5491H16.0746C14.8018 14.5491 13.7662 15.5846 13.7662 16.8575C13.7662 18.1304 14.8018 19.1659 16.0746 19.1659H16.2814C16.2013 19.4 16.1577 19.6509 16.1577 19.9119C16.1577 21.1449 17.1276 22.1554 18.3438 22.2193C18.2629 22.4543 18.219 22.7063 18.219 22.9684C18.219 24.2413 19.2545 25.2769 20.5273 25.2769H30.2066C30.5399 25.2769 30.8434 25.2361 31.123 25.1663V27.6142C31.123 27.9248 30.8616 28.1872 30.5523 28.1872H12.4562C12.6095 27.6414 12.6932 27.0668 12.6932 26.4727C12.6932 22.973 9.84609 20.1258 6.34648 20.1258C5.70406 20.1258 5.08391 20.2225 4.49906 20.4009V14.5767C4.49906 14.1452 4.1493 13.7955 3.71781 13.7955C3.28633 13.7955 2.93656 14.1452 2.93656 14.5767V21.1238C1.17273 22.2526 0 24.2277 0 26.4727C0 29.9737 2.84711 32.8219 6.34672 32.8219C8.64852 32.8219 10.6678 31.5895 11.7806 29.7498H30.5525C31.7287 29.7498 32.6858 28.7918 32.6858 27.6143V24.3977C32.8583 24.2744 33.0232 24.1479 33.1831 24.0246C33.873 23.493 34.4688 23.0338 35.4176 23.0338H38.3455C39.2578 23.0338 40.0001 22.2926 40.0001 21.3815V14.0116C40 13.0992 39.2578 12.357 38.3455 12.357ZM20.3447 7.06469L18.2266 5.73992C17.9733 5.58156 17.6518 5.58148 17.3983 5.73984L15.2778 7.06516V1.5625H20.3447V7.06469ZM6.34672 31.2594C3.70867 31.2594 1.5625 29.1121 1.5625 26.4727C1.5625 23.8346 3.70867 21.6884 6.34672 21.6884C8.98477 21.6884 11.1309 23.8346 11.1309 26.4727C11.1309 29.1121 8.98477 31.2594 6.34672 31.2594ZM38.4375 21.3815C38.4375 21.4294 38.3945 21.4713 38.3455 21.4713H35.4175C33.9365 21.4713 33.0295 22.1702 32.2293 22.787C31.5569 23.3052 31.0258 23.7145 30.2066 23.7145H20.5275C20.1163 23.7145 19.7816 23.3798 19.7816 22.9685C19.7816 22.5572 20.1163 22.2226 20.5275 22.2226H23.1208C23.5523 22.2226 23.902 21.8728 23.902 21.4413C23.902 21.0098 23.5523 20.6601 23.1208 20.6601H18.4662C18.0549 20.6601 17.7204 20.3245 17.7204 19.912C17.7204 19.5006 18.055 19.166 18.4662 19.166H23.1208C23.5523 19.166 23.902 18.8163 23.902 18.3848C23.902 17.9533 23.5523 17.6035 23.1208 17.6035H16.0747C15.6634 17.6035 15.3288 17.2689 15.3288 16.8576C15.3288 16.4463 15.6634 16.1116 16.0747 16.1116H23.1208C23.5523 16.1116 23.902 15.7619 23.902 15.3304C23.902 14.8989 23.5523 14.5491 23.1208 14.5491H18.4662C18.0549 14.5491 17.7204 14.2135 17.7204 13.801C17.7204 13.3897 18.055 13.0552 18.4662 13.0552H30.0117C30.4432 13.0552 30.793 12.7054 30.793 12.2739C30.793 11.8424 30.4432 11.4927 30.0117 11.4927H27.1835C26.4689 11.4927 25.8426 11.0638 25.5876 10.3996C25.439 10.0135 25.4795 9.79336 25.5216 9.73086C25.564 9.6682 25.7166 9.62547 25.9113 9.6218H30.2993C31.6167 9.64813 32.5387 10.6247 33.5148 11.6584C34.5359 12.7399 35.5917 13.8582 37.1764 13.919C37.1863 13.9194 37.1963 13.9195 37.2063 13.9195H38.3456C38.3955 13.9195 38.4377 13.9617 38.4377 14.0116L38.4375 21.3815Z" fill="#322E27"/>
<path d="M3.71911 11.8469C4.1506 11.8469 4.50036 11.4949 4.50036 11.0634C4.50036 10.632 4.1506 10.2822 3.71911 10.2822C3.28763 10.2822 2.93786 10.632 2.93786 11.0634V11.0679C2.93786 11.4993 3.28763 11.8469 3.71911 11.8469Z" fill="#322E27"/>
</svg>
