<svg width="40" height="40" viewBox="0 0 40 40" fill="none" xmlns="http://www.w3.org/2000/svg">
<path d="M37.3526 7.53625C35.657 5.67547 33.3488 4.51493 30.8535 4.26844C30.424 4.22586 30.0416 4.53977 29.9992 4.96907C29.9568 5.39844 30.2705 5.78094 30.6999 5.82336C35.1111 6.25907 38.4375 9.93555 38.4375 14.375V16.875H28.125C27.6935 16.875 27.3438 17.2248 27.3438 17.6563C27.3438 18.0877 27.6935 18.4375 28.125 18.4375H38.4375V20.625H33.6979C33.2664 20.625 32.9166 20.9748 32.9166 21.4063C32.9166 21.8377 33.2664 22.1875 33.6979 22.1875H38.4375V24.375H22.6562V13.4375C22.6562 10.2513 21.0313 7.43774 18.5669 5.78125H24.2188V13.5547C24.2188 13.9861 24.5685 14.3359 25 14.3359C25.4315 14.3359 25.7812 13.9861 25.7812 13.5547V5.46875L29.3223 3.57993C29.5768 3.44415 29.7358 3.17915 29.7358 2.89063C29.7358 2.60211 29.5768 2.33711 29.3223 2.20133L25.3677 0.0919579C25.1255 -0.0372608 24.8334 -0.029839 24.598 0.111333C24.3627 0.252583 24.2188 0.50688 24.2188 0.781255V1.79688V4.21875H13.5547C13.5467 4.21875 13.5391 4.21969 13.5311 4.21993C13.4999 4.21969 13.4688 4.21875 13.4375 4.21875C12.0815 4.21875 10.7748 4.50665 9.55406 5.07438C9.16281 5.25633 8.99312 5.72094 9.17508 6.11219C9.35703 6.50352 9.8218 6.67313 10.2129 6.49118C11.2259 6.02016 12.3108 5.78125 13.4375 5.78125C16.0337 5.78125 18.3318 7.08047 19.7169 9.0625H13.6036C12.8595 9.0625 12.2541 9.66782 12.2541 10.4119V18.6506C12.2541 19.3946 12.8595 19.9999 13.6036 19.9999H21.0938V21.2499H5.78125V13.4375C5.78125 12.3273 6.01344 11.2569 6.47133 10.256C6.65078 9.86368 6.47828 9.40008 6.08586 9.22055C5.69344 9.04102 5.22992 9.2136 5.05039 9.60602C4.49859 10.8123 4.21875 12.1014 4.21875 13.4375V21.25H0.78125C0.349766 21.25 0 21.5998 0 22.0313C0 24.1852 1.75234 25.9375 3.90625 25.9375H19.0625V34.2082C18.1923 33.4012 17.0286 32.9065 15.751 32.9065C14.5086 32.9065 13.3141 33.3838 12.4141 34.2284C12.3196 34.222 12.2252 34.2188 12.1316 34.2188C9.80531 34.2188 7.91281 36.1113 7.91281 38.4375H5C4.56852 38.4375 4.21875 38.7873 4.21875 39.2188C4.21875 39.6502 4.56852 40 5 40H35C35.4315 40 35.7812 39.6502 35.7812 39.2188C35.7812 38.7873 35.4315 38.4375 35 38.4375H28.125V25.9375H39.2188C39.6502 25.9375 40 25.5877 40 25.1563V14.375C40 11.8385 39.0598 9.40977 37.3526 7.53625ZM25.7812 2.08344L27.2946 2.89063L25.7812 3.69782V2.08344ZM19.0625 37.8184C19.0602 38.0276 19.0391 38.2345 18.9983 38.4374H9.47531C9.47539 36.9728 10.6669 35.7813 12.1316 35.7813C12.2771 35.7813 12.4262 35.7939 12.5746 35.8188C12.8384 35.863 13.1067 35.7693 13.2854 35.5702C13.9135 34.8703 14.8122 34.4689 15.751 34.4689C17.5654 34.4689 19.043 35.9354 19.0625 37.7452V37.8184ZM20.5586 10.625C20.8902 11.4616 21.0779 12.3702 21.0923 13.32L19.943 14.4692C19.8596 14.5526 19.7623 14.5651 19.7116 14.5651C19.6609 14.5651 19.5635 14.5527 19.4801 14.4691L15.6359 10.625H20.5586ZM13.8166 11.0156L17.0409 14.2397L13.8166 17.4639V11.0156ZM15.0527 18.4375L18.1458 15.3445L18.3752 15.574C18.7322 15.9309 19.2068 16.1276 19.7116 16.1276C20.2164 16.1276 20.691 15.9309 21.0479 15.5741L21.0938 15.5282V18.4375H15.0527ZM3.90625 24.375C2.88773 24.375 2.01883 23.722 1.69641 22.8125H21.0938V24.375H3.90625ZM23.4375 38.4375H20.625V37.8226C20.6251 37.8088 20.6259 37.7952 20.6259 37.7814C20.6259 37.7693 20.6252 37.7574 20.625 37.7453V25.9375H23.4375V38.4375ZM26.5625 38.4375H25V25.9375H26.5625V38.4375Z" fill="#322E27"/>
</svg>
