<svg width="36" height="36" viewBox="0 0 36 36" fill="none" xmlns="http://www.w3.org/2000/svg">
<path d="M30.4998 6.88719C30.4546 6.38593 30.0384 6.00288 29.5413 6.00499H6.92779C6.49729 5.95627 6.10932 6.27001 6.0612 6.70584C6.05778 6.73674 6.0562 6.76789 6.05637 6.79896L5.88206 27.619H0.958577C0.433336 27.7006 0.0346936 28.1409 0 28.6777V30.1333C0.0658845 33.2944 2.54406 35.8612 5.66423 36H24.7485C27.9248 36.0001 30.4999 33.3933 30.5 30.1776C30.5 30.1629 30.4999 30.1481 30.4998 30.1334V6.88719ZM5.88215 34.2356C3.62973 34.2361 1.79031 32.4132 1.74285 30.1333V29.3834H18.7356V30.1333C18.7401 31.684 19.3696 33.1657 20.4785 34.2356H5.88215ZM28.757 30.1333C28.757 32.4476 26.9038 34.3238 24.6177 34.3238C22.3317 34.3238 20.4784 32.4477 20.4784 30.1333V28.6777C20.4784 28.1924 20.1734 27.619 19.6941 27.619H7.625L7.7993 7.7694H28.7571L28.757 30.1333Z" fill="#322E27"/>
<path d="M10.5925 13.851H17.3488C17.8303 13.851 18.2206 13.4607 18.2206 12.9792C18.2206 12.4977 17.8303 12.1074 17.3488 12.1074H10.5925C10.111 12.1074 9.7207 12.4977 9.7207 12.9792C9.7207 13.4607 10.111 13.851 10.5925 13.851Z" fill="#322E27"/>
<path d="M10.5925 18.6459H24.323C24.8045 18.6459 25.1948 18.2556 25.1948 17.7741C25.1948 17.2926 24.8045 16.9023 24.323 16.9023H10.5925C10.111 16.9023 9.7207 17.2926 9.7207 17.7741C9.7207 18.2556 10.111 18.6459 10.5925 18.6459Z" fill="#322E27"/>
<path d="M10.5925 23.8764H24.323C24.8045 23.8764 25.1948 23.4861 25.1948 23.0046C25.1948 22.5231 24.8045 22.1328 24.323 22.1328H10.5925C10.111 22.1328 9.7207 22.5231 9.7207 23.0046C9.7207 23.4861 10.111 23.8764 10.5925 23.8764Z" fill="#322E27"/>
<path d="M35.0414 8.57817e-06H12.4187C11.9372 8.57817e-06 11.5469 0.390304 11.5469 0.871791C11.5469 1.35328 11.9372 1.74357 12.4187 1.74357H34.2568V23.8432C34.2568 24.3247 34.6471 24.715 35.1285 24.715C35.61 24.715 36.0003 24.3247 36.0003 23.8432V0.871791C35.9551 0.376454 35.5388 -0.00207723 35.0414 8.57817e-06Z" fill="#322E27"/>
</svg>
