<svg width="40" height="40" viewBox="0 0 40 40" fill="none" xmlns="http://www.w3.org/2000/svg">
<g clip-path="url(#clip0_616_8252)">
<path fill-rule="evenodd" clip-rule="evenodd" d="M26.4942 25.73C25.5223 25.73 24.5918 25.9076 23.7331 26.2323H23.1639V26.2328H21.6043V26.2323H18.3957V26.2328H16.8361V26.2321H13.197C13.0469 26.2321 12.9202 26.3591 12.9202 26.5094V28.8597C13.6933 29.433 14.1957 30.3526 14.1957 31.3882C14.1957 32.4235 13.6934 33.3433 12.9202 33.9166V38.1578C12.9202 38.3094 13.0469 38.4375 13.197 38.4375H16.4974C16.9281 38.4375 17.2772 38.7873 17.2772 39.2187C17.2772 39.6502 16.9281 40 16.4974 40H13.197C12.1843 40 11.3604 39.1736 11.3604 38.1578V34.5173C11.2606 34.5268 11.1595 34.5322 11.0571 34.5322H9.11407C7.99532 34.5322 7.08521 33.6204 7.08521 32.4997V30.2764C7.08521 29.7196 7.31005 29.2145 7.67324 28.8472V25.7322C7.67324 25.7279 7.67324 25.7236 7.67331 25.7193C7.70888 23.5525 8.52268 21.9492 10.1614 20.8181C11.5256 19.8764 13.2426 19.4129 14.9031 18.9648C15.3761 18.8371 15.8308 18.7144 16.2679 18.5835V16.9297C14.4888 15.7253 13.3168 13.686 13.3168 11.3777V10.5411C13.2266 10.4731 13.1397 10.3987 13.0576 10.3167C12.1824 9.4398 12.1065 8.06262 12.8283 7.09912V3.96569C12.8283 1.77898 14.6041 0 16.7869 0H23.2131C25.3959 0 27.1718 1.77898 27.1718 3.96569V7.09903C27.8936 8.06255 27.8179 9.43973 26.9435 10.3157C26.861 10.398 26.774 10.4727 26.6834 10.5408V11.3777C26.6834 13.6864 25.5114 15.726 23.7322 16.9303V18.5835C24.167 18.7137 24.6192 18.8357 25.0897 18.9627L25.097 18.9648C26.7575 19.4129 28.4746 19.8764 29.8387 20.8181C31.4773 21.9492 32.2913 23.5525 32.3268 25.7193L32.327 25.7245V25.7322V28.3448C31.8689 27.8317 31.3444 27.3794 30.767 27.0014V25.739C30.7387 24.094 30.1623 22.9392 28.9535 22.1048C27.81 21.3152 26.2248 20.8874 24.6915 20.4735L24.6911 20.4734C24.3277 20.3752 23.9578 20.2748 23.5919 20.1695C23.1501 21.7399 21.7082 22.8949 20.0011 22.8949C18.2931 22.8949 16.8503 21.7399 16.4081 20.1695C16.042 20.2748 15.6722 20.3752 15.3087 20.4734C13.7755 20.8872 12.1901 21.3152 11.0464 22.1048C9.83764 22.9392 9.26131 24.094 9.23292 25.739V28.2439H11.0571C11.1595 28.2439 11.2606 28.2493 11.3604 28.2588V26.5094C11.3604 25.4951 12.1843 24.6696 13.197 24.6696H26.8031C27.6441 24.6696 28.355 25.2373 28.5729 26.0099C27.911 25.8274 27.214 25.73 26.4942 25.73ZM14.388 3.96569C14.388 2.64054 15.4642 1.56249 16.7869 1.56249H23.2131C24.536 1.56249 25.612 2.64054 25.612 3.96569V5.71568C23.9776 4.57053 22.0362 3.95342 20 3.95342C17.9638 3.95342 16.0225 4.57046 14.388 5.71568V3.96569ZM14.1596 9.21091C13.8097 8.86036 13.8097 8.29012 14.1595 7.93959C15.7196 6.37677 17.7939 5.516 20 5.516C22.2061 5.516 24.2804 6.3767 25.8404 7.9395C26.1903 8.29004 26.1903 8.86043 25.8414 9.20997C25.4917 9.5591 24.9227 9.55917 24.5738 9.21091C23.3519 7.98692 21.7281 7.31286 20.0013 7.31286C18.2744 7.31286 16.6506 7.98692 15.4297 9.20997C15.0792 9.5598 14.5091 9.5598 14.1596 9.21091ZM14.8765 11.3777V11.0316C15.4778 11.0115 16.0733 10.7733 16.5316 10.3157C17.4588 9.38692 18.6909 8.87535 20.0011 8.87535C21.3114 8.87535 22.5435 9.38683 23.4718 10.3167C23.929 10.7732 24.5231 11.0109 25.1236 11.0311V11.3778C25.1236 14.2085 22.8257 16.5115 20.0011 16.5115C17.1755 16.5114 14.8765 14.2085 14.8765 11.3777ZM22.1724 17.7091V19.1573C22.1724 20.3568 21.1984 21.3326 20.0011 21.3326C18.8027 21.3326 17.8277 20.3568 17.8277 19.1573V17.7085C18.5096 17.9442 19.2404 18.0739 20.0011 18.0739C20.7611 18.0739 21.4911 17.9444 22.1724 17.7091ZM9.11407 32.9697C8.85538 32.9697 8.64497 32.7589 8.64497 32.4997V30.2764C8.64497 30.0172 8.85538 29.8065 9.11407 29.8065H11.0571C11.9277 29.8065 12.636 30.5161 12.636 31.3882C12.636 32.2603 11.9277 32.9697 11.0571 32.9697H9.11407Z" fill="#322E27"/>
<path d="M20.6305 38.7557C20.603 38.7245 20.5756 38.6931 20.5487 38.6614C20.4077 38.5229 20.2145 38.4375 20.0016 38.4375C19.5709 38.4375 19.2217 38.7873 19.2217 39.2188C19.2217 39.6502 19.5709 40 20.0016 40H20.0037C20.4346 40 20.7826 39.6502 20.7826 39.2188C20.7826 39.0454 20.7261 38.8852 20.6305 38.7557Z" fill="#322E27"/>
<path d="M26.4947 38.5039C29.2162 38.5039 31.4221 36.2937 31.4221 33.5674C31.4221 33.5211 31.4215 33.4749 31.4203 33.4289L32.8104 32.4027C32.8793 32.7805 32.9154 33.1697 32.9154 33.5674C32.9154 37.1199 30.0407 39.9999 26.4947 39.9999C22.9489 39.9999 20.0743 37.1199 20.0743 33.5674C20.0743 30.0148 22.9489 27.1348 26.4947 27.1348C28.0264 27.1348 29.4328 27.6722 30.5363 28.5688L30.527 28.5636C30.5247 28.5624 30.5224 28.561 30.52 28.5597C30.5175 28.5583 30.515 28.5568 30.5125 28.5556L29.303 29.5104C28.5062 28.9558 27.5383 28.6307 26.4947 28.6307C23.7735 28.6307 21.5674 30.841 21.5674 33.5674C21.5674 36.2937 23.7735 38.5039 26.4947 38.5039Z" fill="#322E27"/>
<path d="M24.0914 31.9101V33.7256L26.4548 35.2251L32.2451 30.9631L31.4573 29.7397L26.4548 33.3704L24.0914 31.9101Z" fill="#322E27"/>
</g>
<defs>
<clipPath id="clip0_616_8252">
<rect width="40" height="40" fill="white"/>
</clipPath>
</defs>
</svg>
