<svg width="40" height="40" viewBox="0 0 40 40" fill="none" xmlns="http://www.w3.org/2000/svg">
<g clip-path="url(#clip0_616_8209)">
<path d="M35.4792 24.1278H34.5869V19.3776C34.5869 17.6039 33.1438 16.1609 31.3701 16.1609H30.2919L33.4363 10.2053C33.7637 9.5851 33.8298 8.87462 33.6222 8.20476C33.4143 7.53412 32.9571 6.98466 32.3349 6.65754L20.2435 0.302343C18.9613 -0.371733 17.368 0.121324 16.6921 1.40127L8.89942 16.1609H6.95813C5.18442 16.1609 3.74142 17.6039 3.74142 19.3776V36.7837C3.74142 38.5574 5.18442 40.0005 6.95813 40.0005H31.3702C33.1439 40.0005 34.5869 38.5574 34.5869 36.7837V32.0335H35.4793C35.9108 32.0335 36.2606 31.6837 36.2606 31.2522V24.9091C36.2605 24.4776 35.9107 24.1278 35.4792 24.1278ZM18.0738 2.13082C18.3481 1.61127 18.9953 1.41151 19.5166 1.68542L31.6081 8.04062C31.8603 8.1732 32.0456 8.39578 32.1298 8.66727C32.2137 8.9379 32.187 9.22502 32.0546 9.47572L28.5251 16.1609H26.428L28.4214 12.3852C28.5183 12.2016 28.5382 11.9873 28.4768 11.7891C28.4153 11.5909 28.2776 11.4254 28.094 11.3288C27.5822 11.0598 27.2062 10.6081 27.0354 10.057C26.865 9.50721 26.9192 8.924 27.1881 8.41477C27.2849 8.23125 27.3049 8.01687 27.2434 7.81866C27.182 7.62053 27.0442 7.45498 26.8606 7.35842L22.7603 5.20338C22.379 5.00298 21.9072 5.149 21.7059 5.53018C21.1497 6.58379 19.8374 6.98911 18.7809 6.43395C18.3996 6.23355 17.9278 6.37965 17.7265 6.76075L12.7636 16.1608H10.6663L18.0738 2.13082ZM25.5429 10.5196C25.7586 11.2158 26.1642 11.8201 26.7123 12.2755L24.661 16.1609H14.5305L18.7825 8.10742C20.1897 8.50172 21.7137 8.03078 22.6507 6.91107L25.5134 8.4157C25.32 9.09931 25.3275 9.82487 25.5429 10.5196ZM33.0244 36.7837C33.0244 37.6959 32.2823 38.4379 31.3702 38.4379H6.95813C6.046 38.4379 5.30395 37.6959 5.30395 36.7837V19.3776C5.30395 18.4654 6.046 17.7234 6.95813 17.7234H31.3702C32.2823 17.7234 33.0244 18.4654 33.0244 19.3776V24.1278H29.9739C27.7943 24.1278 26.021 25.901 26.021 28.0807C26.021 30.2603 27.7942 32.0336 29.9739 32.0336H33.0244V36.7837ZM34.698 30.471H29.9738C28.6557 30.471 27.5835 29.3986 27.5835 28.0806C27.5835 26.7626 28.6557 25.6903 29.9738 25.6903H34.698V30.471Z" fill="#322E27"/>
</g>
<defs>
<clipPath id="clip0_616_8209">
<rect width="40" height="40" fill="white"/>
</clipPath>
</defs>
</svg>
