<svg width="40" height="40" viewBox="0 0 40 40" fill="none" xmlns="http://www.w3.org/2000/svg">
<path d="M29.0027 0H15.0936C13.9302 0 12.9837 0.946484 12.9837 2.11V18.243C12.8599 18.4114 12.6538 18.6837 12.4521 18.9502C11.7051 19.937 10.5763 21.4284 9.90309 22.4881C8.57559 24.5812 8.54997 26.6727 9.81755 29.4817C9.82637 29.5013 9.83606 29.5205 9.84653 29.5394C9.84653 29.5394 11.4336 32.4097 11.5017 32.5354C11.9024 33.2757 12.573 34.5148 12.5305 35.4887C12.53 35.5 12.5298 35.5113 12.5298 35.5227V37.8325C12.5298 39.0277 13.5022 40 14.6973 40H21.757C22.9522 40 23.9245 39.0277 23.9245 37.8325L23.9179 35.8088C23.9183 35.0297 24.0361 34.6193 24.185 34.1C24.2868 33.7454 24.4021 33.3434 24.4848 32.7988C24.4869 32.7848 24.4887 32.7707 24.49 32.7565C24.6056 31.557 24.2939 30.3986 23.9639 29.1723C23.7766 28.4763 23.5768 27.7337 23.4338 26.9122H29.0028C30.1662 26.9122 31.1127 25.9657 31.1127 24.8022V16.965C31.1127 16.5336 30.7629 16.1838 30.3315 16.1838C29.9 16.1838 29.5502 16.5336 29.5502 16.965V24.8021C29.5502 25.104 29.3046 25.3496 29.0028 25.3496H27.1598V1.5625H29.0027C29.3045 1.5625 29.5501 1.80812 29.5501 2.11V9.94719C29.5501 10.3786 29.9 10.7284 30.3314 10.7284C30.7628 10.7284 31.1126 10.3786 31.1126 9.94719V2.11C31.1126 0.946484 30.1661 0 29.0027 0ZM21.7569 38.4375H14.6972C14.3693 38.4375 14.0922 38.1604 14.0922 37.8325V35.5386C14.1459 34.1384 13.3514 32.6703 12.8758 31.7916C12.8107 31.6715 11.2286 28.81 11.2286 28.81C10.1897 26.4949 10.1887 24.9552 11.2223 23.3255C11.6748 22.6131 12.3615 21.6727 12.9837 20.8409V24.8022C12.9837 25.9657 13.9302 26.9122 15.0936 26.9122H17.5986V29.5191C17.5986 29.9505 17.9484 30.3004 18.3799 30.3004C18.8114 30.3004 19.1611 29.9505 19.1611 29.5191V21.2922C19.1611 20.5873 19.7345 20.0139 20.4393 20.0139C20.7822 20.0139 21.1057 20.1494 21.3503 20.3954C21.5905 20.637 21.7218 20.9539 21.7197 21.2875C21.7181 21.5552 21.714 23.3169 21.6827 24.1345C21.655 24.8576 21.6856 25.5302 21.7521 26.1581C21.7536 26.2037 21.8143 26.6665 21.8418 26.8477C21.9993 27.8819 22.2414 28.7847 22.455 29.5782C22.7575 30.7024 23.0191 31.6744 22.9366 32.5858C22.8693 33.0197 22.7788 33.3352 22.683 33.6689C22.5219 34.2305 22.3553 34.8113 22.3553 35.8127C22.3553 35.8155 22.3553 35.8182 22.3554 35.8209L22.3619 37.8323C22.3619 38.1604 22.0849 38.4375 21.7569 38.4375ZM25.5973 25.3497H23.2539C23.2338 24.9806 23.2807 21.5625 23.2822 21.2968C23.2867 20.544 22.9941 19.8327 22.4583 19.2938C21.9183 18.7505 21.2012 18.4514 20.4393 18.4514C18.8729 18.4514 17.5986 19.7258 17.5986 21.2922V25.3497H15.0936C14.7917 25.3497 14.5461 25.1041 14.5461 24.8022V2.11C14.5461 1.80812 14.7918 1.5625 15.0936 1.5625H25.5973V25.3497Z" fill="#322E27"/>
<path d="M30.3308 12.676C29.8994 12.676 29.5496 13.0258 29.5496 13.4572V13.4594C29.5496 13.8908 29.8994 14.2396 30.3308 14.2396C30.7622 14.2396 31.1121 13.8886 31.1121 13.4572C31.1121 13.0257 30.7622 12.676 30.3308 12.676Z" fill="#322E27"/>
</svg>
