<svg width="40" height="40" viewBox="0 0 40 40" fill="none" xmlns="http://www.w3.org/2000/svg">
<g clip-path="url(#clip0_847_17130)">
<path d="M13.3361 30.8242C11.7243 31.0076 10.5625 32.4694 10.7461 34.0828C10.8351 34.8631 11.2229 35.5624 11.8382 36.0518C12.3642 36.4703 13.0022 36.6921 13.6639 36.6921C13.7762 36.6921 13.8891 36.6857 14.0023 36.6728C15.6141 36.4893 16.776 35.0276 16.5924 33.4142C16.4086 31.8026 14.9479 30.6411 13.3361 30.8242ZM13.8253 35.1203C13.4597 35.1621 13.0994 35.0585 12.8107 34.8289C12.5221 34.5993 12.3401 34.2715 12.2985 33.9059C12.2123 33.1487 12.7571 32.4626 13.5128 32.3766C13.5655 32.3706 13.6179 32.3677 13.6698 32.3677C14.3613 32.3677 14.9597 32.8882 15.0398 33.591C15.126 34.3483 14.5813 35.0343 13.8253 35.1203Z" fill="#322E27"/>
<path d="M26.2416 27.1326L21.5226 27.6707C21.094 27.7195 20.786 28.1067 20.8349 28.5354C20.8804 28.934 21.2183 29.2282 21.6101 29.2282C21.6397 29.2282 21.6695 29.2265 21.6996 29.2231L26.4186 28.685C26.8472 28.6362 27.1552 28.249 27.1063 27.8203C27.0574 27.3916 26.6703 27.0832 26.2416 27.1326Z" fill="#322E27"/>
<path d="M28.1066 33.7712C27.6751 33.7712 27.3253 34.1209 27.3253 34.5524C27.3253 34.9839 27.6751 35.3337 28.1066 35.3337H28.111C28.5425 35.3337 28.8901 34.9839 28.8901 34.5524C28.8901 34.1209 28.538 33.7712 28.1066 33.7712Z" fill="#322E27"/>
<path d="M39.7067 31.4828C39.5488 30.1038 38.2987 29.1097 36.9199 29.2674L36.5755 29.3067L35.1649 16.925C35.1415 16.7192 35.0372 16.531 34.8751 16.4021C34.7129 16.2731 34.5061 16.2141 34.3003 16.2373L29.3607 16.8004L27.959 4.5081C27.9356 4.30224 27.8313 4.11412 27.6691 3.98514C27.5069 3.85623 27.3004 3.79709 27.0943 3.82037L14.8025 5.2223L14.5927 3.38124C14.4781 2.37274 13.9749 1.46736 13.1758 0.831981C12.377 0.196834 11.3815 -0.089958 10.3732 0.0247278L2.50911 0.919401C1.12976 1.07737 0.135945 2.32774 0.293833 3.70647C0.451096 5.08363 1.70037 6.07877 3.08082 5.92425L9.72728 5.16473L10.8919 15.3786L7.63731 19.6394C7.51474 19.7999 7.45903 20.0016 7.48192 20.2022L8.60956 30.0869C7.72622 31.3068 7.27669 32.8462 7.45974 34.4568C7.64825 36.1153 8.47167 37.601 9.77845 38.6403C10.8955 39.5288 12.2513 40 13.6582 40C13.8966 40 14.1365 39.9865 14.377 39.9591C16.6334 39.701 18.4739 38.2655 19.3557 36.3375L24.7115 35.7272C25.1402 35.6784 25.4481 35.2912 25.3992 34.8625C25.3504 34.4339 24.9638 34.1259 24.5345 34.1748L19.8439 34.7093C19.9281 34.169 19.9437 33.6093 19.8786 33.0402C19.8689 32.9553 19.8566 32.8711 19.8436 32.7871L35.9643 30.949C35.9684 30.9486 35.9723 30.9488 35.9763 30.9483C35.9809 30.9478 35.9852 30.9467 35.9897 30.9461L37.0971 30.8199C37.6196 30.7598 38.0945 31.1372 38.1543 31.6603C38.2141 32.1834 37.837 32.6578 37.3141 32.7177L31.5034 33.3798C31.0748 33.4287 30.7668 33.8158 30.8157 34.2445C30.8612 34.6432 31.1991 34.9374 31.5909 34.9374C31.6205 34.9374 31.6503 34.9357 31.6804 34.9323L35.723 34.4716L36.0162 36.5921C36.0708 36.9867 36.4086 37.2724 36.7959 37.2724C36.8319 37.2724 36.8683 37.27 36.9048 37.2649C37.3361 37.2053 37.6372 36.8075 37.5776 36.3763L37.2897 34.2931L37.4915 34.2701C38.8704 34.1121 39.8642 32.8619 39.7067 31.4828ZM22.1039 5.96214L22.4226 8.75912L21.4005 8.27171C21.131 8.1432 20.8117 8.17952 20.578 8.36546L19.6901 9.07162L19.3712 6.27377L22.1039 5.96214ZM17.8189 6.45088L18.2973 10.6487C18.3295 10.9309 18.5121 11.1733 18.7745 11.282C18.8709 11.3219 18.9724 11.3414 19.0734 11.3414C19.2472 11.3414 19.4192 11.2835 19.5598 11.1717L21.1686 9.89215L23.0222 10.776C23.2786 10.8983 23.581 10.8718 23.8122 10.7068C24.0434 10.5419 24.1669 10.2645 24.1347 9.98239L23.6563 5.78511L26.4951 5.46136L27.8082 16.9772L16.2919 18.29L14.9795 6.7747L17.8189 6.45088ZM27.1791 22.2165L25.8096 21.5633C25.5401 21.4347 25.2208 21.4711 24.987 21.657L23.7983 22.6023L23.3946 19.0529L26.7741 18.6677L27.1791 22.2165ZM2.90528 4.37161C2.38099 4.43021 1.90592 4.05232 1.84615 3.52889C1.78623 3.00593 2.16341 2.53164 2.68622 2.4718L6.78889 2.00501L7.00576 3.90303L2.90528 4.37161ZM10.3263 3.52366L8.55824 3.72569L8.34152 1.82845L10.5498 1.5772C11.1436 1.5097 11.7311 1.67931 12.2034 2.05493C12.6756 2.43047 12.9729 2.96414 13.0403 3.55795L14.8264 19.228C14.8269 19.2332 14.8268 19.2383 14.8274 19.2434C14.828 19.2486 14.8292 19.2535 14.8299 19.2586L15.812 27.8755C15.1842 27.6458 14.5224 27.518 13.8466 27.5002L11.1912 4.21146C11.1678 4.00553 11.0634 3.8174 10.9012 3.6885C10.739 3.55936 10.5321 3.50038 10.3263 3.52366ZM11.1473 17.6184L12.2913 27.6523C11.4537 27.8414 10.687 28.1966 10.0213 28.6775L9.06995 20.3378L11.1473 17.6184ZM14.1999 38.4066C12.9554 38.548 11.7308 38.1967 10.751 37.4174C9.77111 36.6381 9.15362 35.5239 9.01229 34.2803C8.72042 31.7121 10.5716 29.3839 13.1391 29.0902C14.3828 28.949 15.6076 29.3003 16.5874 30.0795C17.5673 30.8589 18.1848 31.973 18.3262 33.2172C18.6198 35.7848 16.7686 38.1128 14.1999 38.4066ZM19.4076 31.2642C19.0055 30.3316 18.3773 29.5068 17.5598 28.8567C17.537 28.8386 17.5133 28.8219 17.4904 28.8042L16.4689 19.8425L21.8422 19.2301L22.4051 24.1794C22.4372 24.4616 22.6199 24.7041 22.8822 24.8129C22.9786 24.8528 23.0802 24.8724 23.1811 24.8724C23.355 24.8724 23.5269 24.8144 23.6675 24.7026L25.5774 23.1838L27.7787 24.2337C28.0351 24.356 28.3375 24.3295 28.5688 24.1646C28.8 23.9997 28.9235 23.7222 28.8913 23.4401L28.3265 18.4909L33.7009 17.8783L35.0231 29.4836L19.4076 31.2642Z" fill="#322E27"/>
</g>
<defs>
<clipPath id="clip0_847_17130">
<rect width="40" height="40" fill="white"/>
</clipPath>
</defs>
</svg>
