<svg width="40" height="40" viewBox="0 0 40 40" fill="none" xmlns="http://www.w3.org/2000/svg">
<path d="M27.6 28C27.6 27.5582 27.9582 27.2 28.4 27.2H33.2C33.6418 27.2 34 27.5582 34 28C34 28.4418 33.6418 28.8 33.2 28.8H28.4C27.9582 28.8 27.6 28.4418 27.6 28Z" fill="#322E27"/>
<path d="M30.4 30.4C29.9582 30.4 29.6 30.7582 29.6 31.2C29.6 31.6418 29.9582 32 30.4 32H33.2C33.6418 32 34 31.6418 34 31.2C34 30.7582 33.6418 30.4 33.2 30.4H30.4Z" fill="#322E27"/>
<path fill-rule="evenodd" clip-rule="evenodd" d="M7.6 26.8C6.93726 26.8 6.4 27.3373 6.4 28V30.8C6.4 31.4627 6.93726 32 7.6 32H16.4C17.0627 32 17.6 31.4627 17.6 30.8V28C17.6 27.3373 17.0627 26.8 16.4 26.8H7.6ZM8 30.4V28.4H16V30.4H8Z" fill="#322E27"/>
<path fill-rule="evenodd" clip-rule="evenodd" d="M18.4 0C17.7373 0 17.2 0.53726 17.2 1.2V12.4H3.6C2.93726 12.4 2.4 12.9373 2.4 13.6V34H1.2C0.537259 34 0 34.5373 0 35.2V38.8C0 39.4627 0.537261 40 1.2 40H38.8C39.4627 40 40 39.4627 40 38.8V35.2C40 34.5373 39.4627 34 38.8 34H37.6V1.2C37.6 0.537258 37.0627 0 36.4 0H18.4ZM36 34V1.6H30.8V7.1259C30.8 7.79409 30.0577 8.1948 29.4991 7.82812L27.4 6.45029L25.301 7.82812C24.7424 8.19479 24 7.79409 24 7.1259V1.6H18.8V12.4H24.4C25.0627 12.4 25.6 12.9373 25.6 13.6V34H36ZM25.6 1.6H29.2V5.71792L27.861 4.83895C27.5811 4.65526 27.2189 4.65526 26.9391 4.83895L25.6 5.71792V1.6ZM1.6 35.6V38.4H38.4V35.6H1.6ZM24 34H4V14H10.4V19.9264C10.4 20.5923 11.1377 20.9934 11.6966 20.6315L14 19.1398L16.3034 20.6315C16.8623 20.9934 17.6 20.5923 17.6 19.9264V14H24V34ZM16 14V18.5288L14.4566 17.5293C14.1788 17.3493 13.8212 17.3493 13.5434 17.5293L12 18.5288V14H16Z" fill="#322E27"/>
<path d="M27.6 28C27.6 27.5582 27.9582 27.2 28.4 27.2H33.2C33.6418 27.2 34 27.5582 34 28C34 28.4418 33.6418 28.8 33.2 28.8H28.4C27.9582 28.8 27.6 28.4418 27.6 28Z" fill="#322E27"/>
<path d="M30.4 30.4C29.9582 30.4 29.6 30.7582 29.6 31.2C29.6 31.6418 29.9582 32 30.4 32H33.2C33.6418 32 34 31.6418 34 31.2C34 30.7582 33.6418 30.4 33.2 30.4H30.4Z" fill="#322E27"/>
<path fill-rule="evenodd" clip-rule="evenodd" d="M7.6 26.8C6.93726 26.8 6.4 27.3373 6.4 28V30.8C6.4 31.4627 6.93726 32 7.6 32H16.4C17.0627 32 17.6 31.4627 17.6 30.8V28C17.6 27.3373 17.0627 26.8 16.4 26.8H7.6ZM8 30.4V28.4H16V30.4H8Z" fill="#322E27"/>
<path fill-rule="evenodd" clip-rule="evenodd" d="M18.4 0C17.7373 0 17.2 0.53726 17.2 1.2V12.4H3.6C2.93726 12.4 2.4 12.9373 2.4 13.6V34H1.2C0.537259 34 0 34.5373 0 35.2V38.8C0 39.4627 0.537261 40 1.2 40H38.8C39.4627 40 40 39.4627 40 38.8V35.2C40 34.5373 39.4627 34 38.8 34H37.6V1.2C37.6 0.537258 37.0627 0 36.4 0H18.4ZM36 34V1.6H30.8V7.1259C30.8 7.79409 30.0577 8.1948 29.4991 7.82812L27.4 6.45029L25.301 7.82812C24.7424 8.19479 24 7.79409 24 7.1259V1.6H18.8V12.4H24.4C25.0627 12.4 25.6 12.9373 25.6 13.6V34H36ZM25.6 1.6H29.2V5.71792L27.861 4.83895C27.5811 4.65526 27.2189 4.65526 26.9391 4.83895L25.6 5.71792V1.6ZM1.6 35.6V38.4H38.4V35.6H1.6ZM24 34H4V14H10.4V19.9264C10.4 20.5923 11.1377 20.9934 11.6966 20.6315L14 19.1398L16.3034 20.6315C16.8623 20.9934 17.6 20.5923 17.6 19.9264V14H24V34ZM16 14V18.5288L14.4566 17.5293C14.1788 17.3493 13.8212 17.3493 13.5434 17.5293L12 18.5288V14H16Z" fill="#322E27"/>
</svg>
