<svg width="40" height="40" viewBox="0 0 40 40" fill="none" xmlns="http://www.w3.org/2000/svg">
<path fill-rule="evenodd" clip-rule="evenodd" d="M33.2 24C31.4327 24 30 25.4327 30 27.2C30 28.9673 31.4327 30.4 33.2 30.4C34.9673 30.4 36.4 28.9673 36.4 27.2C36.4 25.4327 34.9673 24 33.2 24ZM31.6 27.2C31.6 26.3163 32.3163 25.6 33.2 25.6C34.0837 25.6 34.8 26.3163 34.8 27.2C34.8 28.0836 34.0837 28.8 33.2 28.8C32.3163 28.8 31.6 28.0836 31.6 27.2Z" fill="#322E27"/>
<path fill-rule="evenodd" clip-rule="evenodd" d="M33.2 24C31.4327 24 30 25.4327 30 27.2C30 28.9673 31.4327 30.4 33.2 30.4C34.9673 30.4 36.4 28.9673 36.4 27.2C36.4 25.4327 34.9673 24 33.2 24ZM31.6 27.2C31.6 26.3163 32.3163 25.6 33.2 25.6C34.0837 25.6 34.8 26.3163 34.8 27.2C34.8 28.0836 34.0837 28.8 33.2 28.8C32.3163 28.8 31.6 28.0836 31.6 27.2Z" fill="#322E27"/>
<path fill-rule="evenodd" clip-rule="evenodd" d="M0 1.2C0 0.537258 0.537258 0 1.2 0H13.2C13.8627 0 14.4 0.537258 14.4 1.2V6.39999H27.6C29.6 6.39999 33.6 7.59999 33.6 12.4C33.6 17.2 29.6 18.4 27.6 18.4H7.2C6.4 18.4 4.8 18.88 4.8 20.8C4.8 22.72 6.4 23.2 7.2 23.2H18C19.3333 23.2 22 24 22 27.2C22 30.4 19.3333 31.2 18 31.2H7.2C6.4 31.2 4.8 31.68 4.8 33.6C4.8 35.52 6.4 36 7.2 36H26.5843C26.8461 35.4553 27.3513 35.0382 27.8657 34.7414C28.3481 34.463 28.9323 34.2318 29.5835 34.0521C29.4767 33.9181 29.3701 33.7815 29.2641 33.6427C28.5432 32.6983 27.8375 31.6312 27.3085 30.5659C26.7869 29.5156 26.4 28.3942 26.4 27.3621C26.4 23.5373 29.4245 20.4 33.2 20.4C36.9755 20.4 40 23.5373 40 27.3621C40 28.3942 39.6131 29.5156 39.0915 30.5659C38.5625 31.6312 37.8568 32.6983 37.1359 33.6427C37.0299 33.7815 36.9233 33.9181 36.8165 34.0521C37.4677 34.2318 38.0519 34.463 38.5343 34.7414C39.2766 35.1697 40 35.8486 40 36.8C40 37.4222 39.6814 37.9341 39.2782 38.3154C38.8766 38.6952 38.3384 39.0004 37.7398 39.2398C36.538 39.7206 34.9326 40 33.2 40C31.4674 40 29.862 39.7206 28.6602 39.2398C28.0616 39.0004 27.5234 38.6952 27.1218 38.3154C26.9075 38.1128 26.7172 37.8733 26.5858 37.6H7.2C5.86667 37.6 3.2 36.8 3.2 33.6C3.2 30.4 5.86667 29.6 7.2 29.6H18C18.8 29.6 20.4 29.12 20.4 27.2C20.4 25.28 18.8 24.8 18 24.8H7.2C5.86667 24.8 3.2 24 3.2 20.8C3.2 17.6 5.86667 16.8 7.2 16.8H27.6C29.0667 16.8 32 15.92 32 12.4C32 8.87999 29.0667 7.99999 27.6 7.99999L14.4 7.99999V13.2C14.4 13.8627 13.8627 14.4 13.2 14.4H1.2C0.537258 14.4 0 13.8627 0 13.2V1.2ZM12.8 12.8H1.6V1.6H4V6.32525C4 6.99616 4.74772 7.39633 5.30595 7.02417L7.2 5.76147L9.09405 7.02417C9.65228 7.39633 10.4 6.99615 10.4 6.32525V1.6H12.8V12.8ZM8.8 1.6H5.6V4.90518L6.73405 4.14915C7.01621 3.96104 7.38379 3.96104 7.66595 4.14915L8.8 4.90518V1.6ZM28.6653 36.1272C28.064 36.4742 28 36.7365 28 36.8C28 36.8405 28.0172 36.9601 28.2212 37.1529C28.4268 37.3474 28.7674 37.5594 29.2545 37.7543C30.2243 38.1422 31.6189 38.4 33.2 38.4C34.7811 38.4 36.1757 38.1422 37.1455 37.7543C37.6326 37.5594 37.9732 37.3474 38.1788 37.1529C38.3828 36.9601 38.4 36.8405 38.4 36.8C38.4 36.7365 38.336 36.4742 37.7347 36.1272C37.2411 35.8424 36.5239 35.5897 35.6391 35.4201C35.4283 35.646 35.2245 35.8541 35.0317 36.0409C34.7175 36.3454 34.4199 36.6058 34.1612 36.7959C34.0327 36.8903 33.8981 36.979 33.7645 37.0476C33.6547 37.1039 33.4469 37.2 33.2 37.2C32.9531 37.2 32.7453 37.1039 32.6355 37.0476C32.5019 36.979 32.3673 36.8903 32.2388 36.7959C31.9801 36.6058 31.6825 36.3454 31.3683 36.0409C31.1755 35.8541 30.9717 35.646 30.7609 35.4201C29.8761 35.5897 29.1589 35.8424 28.6653 36.1272ZM28 27.3621C28 24.3805 30.3481 22 33.2 22C36.0519 22 38.4 24.3805 38.4 27.3621C38.4 28.0317 38.1369 28.8908 37.6585 29.8542C37.1875 30.8026 36.5432 31.7822 35.8641 32.6719C35.1855 33.5608 34.4867 34.3411 33.9183 34.8919C33.6325 35.1688 33.3926 35.3752 33.2138 35.5065L33.2 35.5166L33.1862 35.5065C33.0074 35.3752 32.7675 35.1688 32.4817 34.8919C31.9133 34.3411 31.2145 33.5608 30.5359 32.6719C29.8568 31.7822 29.2125 30.8026 28.7415 29.8542C28.2631 28.8908 28 28.0317 28 27.3621Z" fill="#322E27"/>
<path fill-rule="evenodd" clip-rule="evenodd" d="M30 27.2C30 25.4327 31.4327 24 33.2 24C34.9673 24 36.4 25.4327 36.4 27.2C36.4 28.9673 34.9673 30.4 33.2 30.4C31.4327 30.4 30 28.9673 30 27.2ZM33.2 25.6C32.3163 25.6 31.6 26.3163 31.6 27.2C31.6 28.0836 32.3163 28.8 33.2 28.8C34.0837 28.8 34.8 28.0836 34.8 27.2C34.8 26.3163 34.0837 25.6 33.2 25.6Z" fill="#322E27"/>
</svg>
