<svg width="40" height="40" viewBox="0 0 40 40" fill="none" xmlns="http://www.w3.org/2000/svg">
<g clip-path="url(#clip0_847_17132)">
<path d="M20.0059 40H20.0037C19.5722 40 19.2225 39.6502 19.2225 39.2188C19.2225 38.7873 19.5722 38.4375 20.0037 38.4375C20.4352 38.4375 20.7861 38.7873 20.7861 39.2188C20.7861 39.6502 20.4374 40 20.0059 40Z" fill="#322E27"/>
<path d="M32.3505 28.8473V25.7323C32.3505 25.728 32.3505 25.7237 32.3504 25.7194C32.3148 23.5526 31.4995 21.9494 29.858 20.8182C28.4913 19.8764 26.7713 19.413 25.108 18.9648C24.634 18.8371 24.1786 18.7145 23.7407 18.5836V16.9304C25.5229 15.726 26.697 13.6865 26.697 11.3777V10.5409C26.7877 10.4727 26.875 10.398 26.9576 10.3157C27.8335 9.43977 27.9095 8.06258 27.1864 7.09906V3.9657C27.1863 1.77898 25.4073 0 23.2207 0H16.7832C14.5966 0 12.8176 1.77898 12.8176 3.9657V7.09914C12.0945 8.06266 12.1705 9.43984 13.0473 10.3167C13.1296 10.3988 13.2166 10.4731 13.307 10.5411V11.3777C13.307 13.6861 14.481 15.7253 16.2633 16.9298V18.5836C15.8254 18.7145 15.3699 18.8372 14.896 18.9648C13.2327 19.413 11.5127 19.8764 10.146 20.8182C8.50445 21.9494 7.68922 23.5526 7.65359 25.7194C7.65352 25.7237 7.65352 25.728 7.65352 25.7323V28.8473C7.28969 29.2147 7.06445 29.7197 7.06445 30.2765V32.4998C7.06445 33.6205 7.97617 34.5323 9.09688 34.5323H11.0434C11.1459 34.5323 11.2472 34.527 11.3472 34.5174V38.158C11.3472 39.1738 12.1725 40.0001 13.187 40.0001H16.4931C16.9246 40.0001 17.2744 39.6503 17.2744 39.2188C17.2744 38.7873 16.9246 38.4376 16.4931 38.4376H13.187C13.0366 38.4376 12.9097 38.3096 12.9097 38.158V33.9166C13.6842 33.3434 14.1874 32.4236 14.1874 31.3882C14.1874 30.3528 13.6841 29.433 12.9097 28.8598V26.5095C12.9097 26.3592 13.0366 26.2323 13.187 26.2323H16.8324V30.9873C16.8324 31.2762 16.9918 31.5414 17.2467 31.677C17.3618 31.7383 17.4878 31.7686 17.6136 31.7686C17.7664 31.7686 17.9188 31.7238 18.0502 31.6352L20.0028 30.3196L21.9534 31.6351C22.1929 31.7966 22.502 31.8128 22.757 31.6772C23.012 31.5416 23.1714 31.2763 23.1714 30.9874V26.2323H26.8169C26.9684 26.2323 27.0963 26.3593 27.0963 26.5096V28.8583C26.3206 29.4314 25.8164 30.352 25.8164 31.3883C25.8164 32.4246 26.3206 33.3452 27.0963 33.9183V38.1581C27.0963 38.3096 26.9684 38.4377 26.8169 38.4377H23.5107C23.0792 38.4377 22.7295 38.7874 22.7295 39.2189C22.7295 39.6504 23.0792 40.0002 23.5107 40.0002H26.8169C27.8325 40.0002 28.6588 39.1738 28.6588 38.1581V34.5177C28.7581 34.5273 28.8587 34.5325 28.9605 34.5325H30.907C32.0277 34.5325 32.9394 33.6208 32.9394 32.5V30.2766C32.9395 29.7198 32.7143 29.2147 32.3505 28.8473ZM14.3801 3.9657C14.3801 2.64055 15.4581 1.5625 16.7832 1.5625H23.2207C24.5458 1.5625 25.6238 2.64055 25.6238 3.9657V5.7157C23.9865 4.57055 22.0417 3.95344 20.002 3.95344C17.9622 3.95344 16.0174 4.57047 14.3801 5.7157V3.9657ZM14.1512 9.21094C13.8008 8.86039 13.8008 8.29016 14.1512 7.93961C15.714 6.3768 17.792 5.51602 20.002 5.51602C22.212 5.51602 24.2898 6.37672 25.8526 7.93953C26.2031 8.29008 26.2031 8.86047 25.8537 9.21C25.5033 9.55914 24.9332 9.55922 24.5838 9.21094C23.3598 7.98695 21.733 7.31289 20.0032 7.31289C18.2734 7.31289 16.6466 7.98695 15.4236 9.21C15.0725 9.55984 14.5014 9.55984 14.1512 9.21094ZM14.8695 11.3777V11.0316C15.4718 11.0116 16.0683 10.7734 16.5274 10.3158C17.4563 9.38695 18.6905 8.87539 20.003 8.87539C21.3155 8.87539 22.5499 9.38688 23.4797 10.3167C23.9377 10.7732 24.533 11.0109 25.1345 11.0312V11.3778C25.1345 14.2086 22.8325 16.5116 20.003 16.5116C17.1724 16.5115 14.8695 14.2085 14.8695 11.3777ZM22.1781 17.7091V19.1574C22.1781 20.3568 21.2024 21.3326 20.003 21.3326C18.8025 21.3326 17.8258 20.3568 17.8258 19.1574V17.7086C18.5089 17.9442 19.2409 18.074 20.003 18.074C20.7644 18.074 21.4956 17.9444 22.1781 17.7091ZM9.09688 32.9698C8.83773 32.9698 8.62695 32.759 8.62695 32.4998V30.2765C8.62695 30.0173 8.83773 29.8066 9.09688 29.8066H11.0434C11.9155 29.8066 12.625 30.5161 12.625 31.3882C12.625 32.2603 11.9155 32.9698 11.0434 32.9698H9.09688ZM21.609 29.5182L20.4398 28.7298C20.1759 28.5517 19.8304 28.5516 19.5665 28.7296L18.3948 29.519V26.2323H21.609V29.5182ZM26.817 24.6698H13.187C12.1725 24.6698 11.3472 25.4951 11.3472 26.5095V28.259C11.2472 28.2494 11.1459 28.2441 11.0434 28.2441H9.21594V25.7391C9.24438 24.0941 9.82172 22.9392 11.0326 22.1048C12.1783 21.3153 13.7665 20.8873 15.3024 20.4735C15.6666 20.3754 16.037 20.2749 16.4038 20.1695C16.8466 21.74 18.292 22.8949 20.003 22.8949C21.713 22.8949 23.1575 21.7401 23.6001 20.1696C23.9668 20.2749 24.3373 20.3754 24.7013 20.4735C26.2373 20.8873 27.8256 21.3152 28.9712 22.1048C30.1821 22.9392 30.7595 24.0941 30.7878 25.7391V28.244H28.9606C28.8588 28.244 28.7582 28.2493 28.6589 28.2588V26.5095C28.659 25.4951 27.8327 24.6698 26.817 24.6698ZM31.377 32.4999C31.377 32.7591 31.1663 32.9699 30.9071 32.9699H28.9606C28.7078 32.9699 28.4696 32.9088 28.2576 32.803C28.239 32.7926 28.2197 32.7833 28.2002 32.7744C27.7112 32.505 27.379 31.9848 27.379 31.3883C27.379 30.5162 28.0885 29.8066 28.9606 29.8066H30.907C31.1662 29.8066 31.377 30.0174 31.377 30.2766L31.377 32.4999Z" fill="#322E27"/>
</g>
<defs>
<clipPath id="clip0_847_17132">
<rect width="40" height="40" fill="white"/>
</clipPath>
</defs>
</svg>
