<svg width="40" height="40" viewBox="0 0 40 40" fill="none" xmlns="http://www.w3.org/2000/svg">
<g clip-path="url(#clip0_847_17134)">
<path d="M8.73053 27.9965C8.39974 27.7194 7.90701 27.763 7.62998 28.0938L5.67646 30.4261L4.97045 29.8279C4.64123 29.549 4.14834 29.5898 3.86935 29.919C3.59045 30.2482 3.63123 30.7412 3.96045 31.0201L5.26592 32.1261C5.40756 32.2461 5.5867 32.3113 5.77092 32.3113C5.7931 32.3113 5.81529 32.3103 5.83756 32.3084C6.04474 32.2906 6.23639 32.1911 6.3699 32.0317L8.82795 29.097C9.10482 28.7663 9.06123 28.2736 8.73053 27.9965Z" fill="#322E27"/>
<path d="M38.3455 15.9469H37.2227C36.2822 15.9034 35.5259 15.1024 34.6508 14.1755C34.066 13.5563 33.4399 12.8931 32.6857 12.4016V5.7232C32.6857 4.54688 31.7287 3.58984 30.5524 3.58984H5.07008C3.89375 3.58984 2.9368 4.54688 2.9368 5.7232V11.1426C2.9368 11.5741 3.28656 11.9238 3.71805 11.9238C4.14953 11.9238 4.4993 11.5741 4.4993 11.1426V5.7232C4.4993 5.41383 4.7607 5.15234 5.07008 5.15234H13.7153V12.0646C13.7153 12.3486 13.8695 12.6102 14.1178 12.748C14.2358 12.8134 14.3662 12.8459 14.4965 12.8459C14.6405 12.8459 14.7841 12.8061 14.9106 12.7271L17.8122 10.9136L20.7116 12.727C20.9525 12.8776 21.256 12.8857 21.5045 12.748C21.753 12.6104 21.9072 12.3488 21.9072 12.0647V5.15234H30.5525C30.8619 5.15234 31.1233 5.41375 31.1233 5.7232V11.7393C30.8691 11.6861 30.6023 11.6541 30.3202 11.6491C30.3156 11.6491 30.3111 11.6491 30.3065 11.6491H25.9046C25.9005 11.6491 25.8966 11.6491 25.8925 11.6491C24.9507 11.6638 24.4668 12.0907 24.2266 12.4463C23.8539 12.9981 23.8194 13.7455 24.1291 14.55C24.2012 14.7378 24.2891 14.9155 24.3903 15.0824H18.4662C17.1934 15.0824 16.1578 16.118 16.1578 17.3908C16.1578 17.6525 16.2016 17.9042 16.282 18.1389H16.0746C14.8018 18.1389 13.7662 19.1745 13.7662 20.4473C13.7662 21.7202 14.8018 22.7558 16.0746 22.7558H16.2814C16.2013 22.9898 16.1577 23.2408 16.1577 23.5017C16.1577 24.7348 17.1276 25.7452 18.3438 25.8091C18.2629 26.0441 18.219 26.2961 18.219 26.5583C18.219 27.8312 19.2545 28.8667 20.5273 28.8667H30.2066C30.5399 28.8667 30.8434 28.8259 31.123 28.7561V31.2041C31.123 31.5147 30.8616 31.777 30.5523 31.777H12.4562C12.6095 31.2313 12.6932 30.6566 12.6932 30.0625C12.6932 26.5628 9.84609 23.7156 6.34648 23.7156C5.70406 23.7156 5.08391 23.8123 4.49906 23.9907V18.1666C4.49906 17.7351 4.1493 17.3853 3.71781 17.3853C3.28633 17.3853 2.93656 17.7351 2.93656 18.1666V24.7137C1.17273 25.8424 0 27.8175 0 30.0626C0 33.5635 2.84711 36.4117 6.34672 36.4117C8.64852 36.4117 10.6678 35.1793 11.7806 33.3396H30.5525C31.7287 33.3396 32.6858 32.3816 32.6858 31.2041V27.9875C32.8583 27.8642 33.0232 27.7377 33.1831 27.6145C33.873 27.0828 34.4688 26.6237 35.4176 26.6237H38.3455C39.2578 26.6237 40.0001 25.8824 40.0001 24.9713V17.6015C40 16.6891 39.2578 15.9469 38.3455 15.9469ZM20.3447 10.6545L18.2266 9.32977C17.9733 9.17141 17.6518 9.17133 17.3983 9.32969L15.2778 10.655V5.15234H20.3447V10.6545ZM6.34672 34.8492C3.70867 34.8492 1.5625 32.702 1.5625 30.0626C1.5625 27.4245 3.70867 25.2782 6.34672 25.2782C8.98477 25.2782 11.1309 27.4245 11.1309 30.0626C11.1309 32.702 8.98477 34.8492 6.34672 34.8492ZM38.4375 24.9713C38.4375 25.0192 38.3945 25.0612 38.3455 25.0612H35.4175C33.9365 25.0612 33.0295 25.7601 32.2293 26.3768C31.5569 26.895 31.0258 27.3043 30.2066 27.3043H20.5275C20.1163 27.3043 19.7816 26.9697 19.7816 26.5584C19.7816 26.147 20.1163 25.8124 20.5275 25.8124H23.1208C23.5523 25.8124 23.902 25.4627 23.902 25.0312C23.902 24.5997 23.5523 24.2499 23.1208 24.2499H18.4662C18.0549 24.2499 17.7204 23.9144 17.7204 23.5018C17.7204 23.0905 18.055 22.7559 18.4662 22.7559H23.1208C23.5523 22.7559 23.902 22.4061 23.902 21.9746C23.902 21.5431 23.5523 21.1934 23.1208 21.1934H16.0747C15.6634 21.1934 15.3288 20.8588 15.3288 20.4474C15.3288 20.0361 15.6634 19.7015 16.0747 19.7015H23.1208C23.5523 19.7015 23.902 19.3517 23.902 18.9202C23.902 18.4888 23.5523 18.139 23.1208 18.139H18.4662C18.0549 18.139 17.7204 17.8034 17.7204 17.3909C17.7204 16.9795 18.055 16.645 18.4662 16.645H30.0117C30.4432 16.645 30.793 16.2952 30.793 15.8638C30.793 15.4323 30.4432 15.0825 30.0117 15.0825H27.1835C26.4689 15.0825 25.8426 14.6537 25.5876 13.9895C25.439 13.6034 25.4795 13.3832 25.5216 13.3207C25.564 13.258 25.7166 13.2153 25.9113 13.2116H30.2993C31.6167 13.238 32.5387 14.2145 33.5148 15.2483C34.5359 16.3298 35.5917 17.448 37.1764 17.5088C37.1863 17.5092 37.1963 17.5094 37.2063 17.5094H38.3456C38.3955 17.5094 38.4377 17.5516 38.4377 17.6014L38.4375 24.9713Z" fill="#322E27"/>
<path d="M3.71911 15.4367C4.1506 15.4367 4.50036 15.0848 4.50036 14.6533C4.50036 14.2218 4.1506 13.872 3.71911 13.872C3.28763 13.872 2.93786 14.2218 2.93786 14.6533V14.6577C2.93786 15.0891 3.28763 15.4367 3.71911 15.4367Z" fill="#322E27"/>
</g>
<defs>
<clipPath id="clip0_847_17134">
<rect width="40" height="40" fill="white"/>
</clipPath>
</defs>
</svg>
