<svg width="40" height="40" viewBox="0 0 40 40" fill="none" xmlns="http://www.w3.org/2000/svg">
<path d="M32.4998 8.88719C32.4546 8.38593 32.0384 8.00288 31.5413 8.00499H8.92779C8.49729 7.95627 8.10932 8.27001 8.0612 8.70584C8.05778 8.73674 8.0562 8.76789 8.05637 8.79896L7.88206 29.619H2.95858C2.43334 29.7006 2.03469 30.1409 2 30.6777V32.1333C2.06588 35.2944 4.54406 37.8612 7.66423 38H26.7485C29.9248 38.0001 32.4999 35.3933 32.5 32.1776C32.5 32.1629 32.4999 32.1481 32.4998 32.1334V8.88719ZM7.88215 36.2356C5.62973 36.2361 3.79031 34.4132 3.74285 32.1333V31.3834H20.7356V32.1333C20.7401 33.684 21.3696 35.1657 22.4785 36.2356H7.88215ZM30.757 32.1333C30.757 34.4476 28.9038 36.3238 26.6177 36.3238C24.3317 36.3238 22.4784 34.4477 22.4784 32.1333V30.6777C22.4784 30.1924 22.1734 29.619 21.6941 29.619H9.625L9.7993 9.7694H30.7571L30.757 32.1333Z" fill="#322E27"/>
<path d="M12.5925 15.851H19.3488C19.8303 15.851 20.2206 15.4607 20.2206 14.9792C20.2206 14.4977 19.8303 14.1074 19.3488 14.1074H12.5925C12.111 14.1074 11.7207 14.4977 11.7207 14.9792C11.7207 15.4607 12.111 15.851 12.5925 15.851Z" fill="#322E27"/>
<path d="M12.5925 20.6458H26.323C26.8045 20.6458 27.1948 20.2555 27.1948 19.774C27.1948 19.2925 26.8045 18.9023 26.323 18.9023H12.5925C12.111 18.9023 11.7207 19.2925 11.7207 19.774C11.7207 20.2555 12.111 20.6458 12.5925 20.6458Z" fill="#322E27"/>
<path d="M12.5925 25.8765H26.323C26.8045 25.8765 27.1948 25.4862 27.1948 25.0047C27.1948 24.5232 26.8045 24.1329 26.323 24.1329H12.5925C12.111 24.1329 11.7207 24.5232 11.7207 25.0047C11.7207 25.4862 12.111 25.8765 12.5925 25.8765Z" fill="#322E27"/>
<path d="M37.0414 2.00001H14.4187C13.9372 2.00001 13.5469 2.3903 13.5469 2.87179C13.5469 3.35328 13.9372 3.74357 14.4187 3.74357H36.2568V25.8432C36.2568 26.3247 36.6471 26.715 37.1285 26.715C37.61 26.715 38.0003 26.3247 38.0003 25.8432V2.87179C37.9551 2.37645 37.5388 1.99792 37.0414 2.00001Z" fill="#322E27"/>
</svg>
