<svg width="40" height="40" viewBox="0 0 40 40" fill="none" xmlns="http://www.w3.org/2000/svg">
<g clip-path="url(#clip0_1145_10494)">
<path d="M35.48 24.1277H34.5876V19.3775C34.5876 17.6038 33.1446 16.1607 31.3709 16.1607H30.2927L33.4371 10.2051C33.7645 9.58498 33.8306 8.8745 33.6229 8.20464C33.415 7.534 32.9579 6.98454 32.3356 6.65742L20.2443 0.302221C18.962 -0.371855 17.3688 0.121202 16.6928 1.40115L8.90018 16.1607H6.95889C5.18518 16.1607 3.74219 17.6038 3.74219 19.3775V36.7836C3.74219 38.5573 5.18518 40.0003 6.95889 40.0003H31.3709C33.1446 40.0003 34.5877 38.5573 34.5877 36.7836V32.0334H35.4801C35.9116 32.0334 36.2613 31.6835 36.2613 31.2521V24.909C36.2613 24.4775 35.9115 24.1277 35.48 24.1277ZM18.0746 2.13069C18.3489 1.61115 18.9961 1.41138 19.5173 1.68529L31.6088 8.0405C31.8611 8.17308 32.0464 8.39566 32.1306 8.66715C32.2145 8.93778 32.1877 9.22489 32.0554 9.4756L28.5259 16.1607H26.4287L28.4222 12.385C28.5191 12.2015 28.539 11.9871 28.4775 11.7889C28.4161 11.5908 28.2784 11.4253 28.0948 11.3287C27.583 11.0597 27.2069 10.608 27.0362 10.0569C26.8658 9.50709 26.92 8.92387 27.1888 8.41464C27.2857 8.23112 27.3056 8.01675 27.2441 7.81854C27.1827 7.62041 27.045 7.45486 26.8614 7.3583L22.7611 5.20325C22.3797 5.00286 21.9079 5.14888 21.7067 5.53006C21.1504 6.58367 19.8382 6.98899 18.7817 6.43382C18.4004 6.23343 17.9286 6.37953 17.7273 6.76063L12.7643 16.1607H10.6671L18.0746 2.13069ZM25.5436 10.5195C25.7594 11.2157 26.165 11.8199 26.7131 12.2754L24.6618 16.1607H14.5312L18.7833 8.10729C20.1905 8.5016 21.7145 8.03065 22.6515 6.91094L25.5142 8.41558C25.3207 9.09919 25.3283 9.82475 25.5436 10.5195ZM33.0252 36.7836C33.0252 37.6958 32.2831 38.4378 31.3709 38.4378H6.95889C6.04676 38.4378 5.30472 37.6958 5.30472 36.7836V19.3775C5.30472 18.4653 6.04676 17.7233 6.95889 17.7233H31.3709C32.2831 17.7233 33.0252 18.4653 33.0252 19.3775V24.1277H29.9746C27.7951 24.1277 26.0218 25.9009 26.0218 28.0806C26.0218 30.2602 27.795 32.0335 29.9746 32.0335H33.0252V36.7836ZM34.6987 30.4709H29.9746C28.6565 30.4709 27.5842 29.3985 27.5842 28.0805C27.5842 26.7625 28.6565 25.6901 29.9746 25.6901H34.6987V30.4709Z" fill="#322E27"/>
</g>
<defs>
<clipPath id="clip0_1145_10494">
<rect width="40" height="40" fill="white"/>
</clipPath>
</defs>
</svg>
