<svg width="40" height="40" viewBox="0 0 40 40" fill="none" xmlns="http://www.w3.org/2000/svg">
<g clip-path="url(#clip0_311_9073)">
<path d="M8.73053 27.9964C8.39974 27.7193 7.90701 27.7629 7.62998 28.0936L5.67646 30.426L4.97045 29.8278C4.64123 29.5489 4.14834 29.5897 3.86935 29.9189C3.59045 30.2481 3.63123 30.7411 3.96045 31.02L5.26592 32.126C5.40756 32.246 5.5867 32.3111 5.77092 32.3111C5.7931 32.3111 5.81529 32.3102 5.83756 32.3082C6.04474 32.2905 6.23639 32.191 6.3699 32.0315L8.82795 29.0969C9.10482 28.7661 9.06123 28.2735 8.73053 27.9964Z" fill="#322E27"/>
<path d="M38.3455 15.9468H37.2227C36.2822 15.9033 35.5259 15.1023 34.6508 14.1754C34.066 13.5561 33.4399 12.893 32.6857 12.4015V5.72308C32.6857 4.54675 31.7287 3.58972 30.5524 3.58972H5.07008C3.89375 3.58972 2.9368 4.54675 2.9368 5.72308V11.1425C2.9368 11.5739 3.28656 11.9237 3.71805 11.9237C4.14953 11.9237 4.4993 11.5739 4.4993 11.1425V5.72308C4.4993 5.41371 4.7607 5.15222 5.07008 5.15222H13.7153V12.0645C13.7153 12.3485 13.8695 12.6101 14.1178 12.7478C14.2358 12.8132 14.3662 12.8457 14.4965 12.8457C14.6405 12.8457 14.7841 12.806 14.9106 12.727L17.8122 10.9135L20.7116 12.7269C20.9525 12.8775 21.256 12.8856 21.5045 12.7479C21.753 12.6103 21.9072 12.3486 21.9072 12.0646V5.15222H30.5525C30.8619 5.15222 31.1233 5.41363 31.1233 5.72308V11.7392C30.8691 11.686 30.6023 11.654 30.3202 11.649C30.3156 11.6489 30.3111 11.6489 30.3065 11.6489H25.9046C25.9005 11.6489 25.8966 11.6489 25.8925 11.649C24.9507 11.6636 24.4668 12.0906 24.2266 12.4461C23.8539 12.998 23.8194 13.7454 24.1291 14.5499C24.2012 14.7377 24.2891 14.9153 24.3903 15.0823H18.4662C17.1934 15.0823 16.1578 16.1178 16.1578 17.3907C16.1578 17.6524 16.2016 17.9041 16.282 18.1388H16.0746C14.8018 18.1388 13.7662 19.1743 13.7662 20.4472C13.7662 21.7201 14.8018 22.7557 16.0746 22.7557H16.2814C16.2013 22.9897 16.1577 23.2407 16.1577 23.5016C16.1577 24.7346 17.1276 25.7451 18.3438 25.809C18.2629 26.044 18.219 26.296 18.219 26.5582C18.219 27.8311 19.2545 28.8666 20.5273 28.8666H30.2066C30.5399 28.8666 30.8434 28.8258 31.123 28.756V31.2039C31.123 31.5146 30.8616 31.7769 30.5523 31.7769H12.4562C12.6095 31.2311 12.6932 30.6565 12.6932 30.0624C12.6932 26.5627 9.84609 23.7155 6.34648 23.7155C5.70406 23.7155 5.08391 23.8122 4.49906 23.9906V18.1664C4.49906 17.735 4.1493 17.3852 3.71781 17.3852C3.28633 17.3852 2.93656 17.735 2.93656 18.1664V24.7136C1.17273 25.8423 0 27.8174 0 30.0625C0 33.5634 2.84711 36.4116 6.34672 36.4116C8.64852 36.4116 10.6678 35.1792 11.7806 33.3395H30.5525C31.7287 33.3395 32.6858 32.3815 32.6858 31.204V27.9874C32.8583 27.8641 33.0232 27.7376 33.1831 27.6143C33.873 27.0827 34.4688 26.6236 35.4176 26.6236H38.3455C39.2578 26.6236 40.0001 25.8823 40.0001 24.9712V17.6014C40 16.6889 39.2578 15.9468 38.3455 15.9468ZM20.3447 10.6544L18.2266 9.32964C17.9733 9.17129 17.6518 9.17121 17.3983 9.32957L15.2778 10.6549V5.15222H20.3447V10.6544ZM6.34672 34.8491C3.70867 34.8491 1.5625 32.7018 1.5625 30.0625C1.5625 27.4243 3.70867 25.2781 6.34672 25.2781C8.98477 25.2781 11.1309 27.4243 11.1309 30.0625C11.1309 32.7018 8.98477 34.8491 6.34672 34.8491ZM38.4375 24.9712C38.4375 25.0191 38.3945 25.0611 38.3455 25.0611H35.4175C33.9365 25.0611 33.0295 25.76 32.2293 26.3767C31.5569 26.8949 31.0258 27.3042 30.2066 27.3042H20.5275C20.1163 27.3042 19.7816 26.9696 19.7816 26.5582C19.7816 26.1469 20.1163 25.8123 20.5275 25.8123H23.1208C23.5523 25.8123 23.902 25.4625 23.902 25.0311C23.902 24.5996 23.5523 24.2498 23.1208 24.2498H18.4662C18.0549 24.2498 17.7204 23.9143 17.7204 23.5017C17.7204 23.0903 18.055 22.7557 18.4662 22.7557H23.1208C23.5523 22.7557 23.902 22.406 23.902 21.9745C23.902 21.543 23.5523 21.1932 23.1208 21.1932H16.0747C15.6634 21.1932 15.3288 20.8586 15.3288 20.4473C15.3288 20.036 15.6634 19.7014 16.0747 19.7014H23.1208C23.5523 19.7014 23.902 19.3516 23.902 18.9201C23.902 18.4886 23.5523 18.1389 23.1208 18.1389H18.4662C18.0549 18.1389 17.7204 17.8032 17.7204 17.3907C17.7204 16.9794 18.055 16.6449 18.4662 16.6449H30.0117C30.4432 16.6449 30.793 16.2951 30.793 15.8636C30.793 15.4321 30.4432 15.0824 30.0117 15.0824H27.1835C26.4689 15.0824 25.8426 14.6536 25.5876 13.9893C25.439 13.6032 25.4795 13.3831 25.5216 13.3206C25.564 13.2579 25.7166 13.2152 25.9113 13.2115H30.2993C31.6167 13.2378 32.5387 14.2144 33.5148 15.2482C34.5359 16.3296 35.5917 17.4479 37.1764 17.5087C37.1863 17.5091 37.1963 17.5093 37.2063 17.5093H38.3456C38.3955 17.5093 38.4377 17.5514 38.4377 17.6013L38.4375 24.9712Z" fill="#322E27"/>
<path d="M3.71911 15.4366C4.1506 15.4366 4.50036 15.0847 4.50036 14.6532C4.50036 14.2217 4.1506 13.8719 3.71911 13.8719C3.28763 13.8719 2.93786 14.2217 2.93786 14.6532V14.6576C2.93786 15.089 3.28763 15.4366 3.71911 15.4366Z" fill="#322E27"/>
</g>
<defs>
<clipPath id="clip0_311_9073">
<rect width="40" height="40" fill="white"/>
</clipPath>
</defs>
</svg>
