<svg width="40" height="40" viewBox="0 0 40 40" fill="none" xmlns="http://www.w3.org/2000/svg">
<g clip-path="url(#clip0_320_9206)">
<path d="M31.2165 20.854C31.0712 20.7087 30.8696 20.6251 30.6642 20.6251C30.4587 20.6251 30.2571 20.7086 30.1118 20.854C29.9665 20.9993 29.8829 21.2009 29.8829 21.4063C29.8829 21.6118 29.9665 21.8134 30.1118 21.9586C30.2571 22.1039 30.4587 22.1876 30.6642 22.1876C30.8696 22.1875 31.0712 22.1039 31.2165 21.9586C31.3618 21.8134 31.4454 21.6118 31.4454 21.4063C31.4454 21.2009 31.3618 20.9993 31.2165 20.854Z" fill="#322E27"/>
<path d="M37.3526 7.53619C35.657 5.67541 33.3488 4.51487 30.8535 4.26838C30.424 4.2258 30.0416 4.53971 29.9992 4.96901C29.9568 5.39838 30.2705 5.78088 30.6999 5.8233C35.1111 6.25901 38.4375 9.93549 38.4375 14.3749V16.8749H28.125C27.6935 16.8749 27.3438 17.2248 27.3438 17.6562C27.3438 18.0876 27.6935 18.4374 28.125 18.4374H38.4375V20.6249H33.6979C33.2664 20.6249 32.9166 20.9748 32.9166 21.4062C32.9166 21.8376 33.2664 22.1874 33.6979 22.1874H38.4375V24.3749H22.6562V13.4374C22.6562 10.2513 21.0313 7.43768 18.5669 5.78119H24.2188V13.5546C24.2188 13.986 24.5685 14.3359 25 14.3359C25.4315 14.3359 25.7812 13.986 25.7812 13.5546V5.46869L29.3223 3.57987C29.5768 3.44408 29.7358 3.17908 29.7358 2.89057C29.7358 2.60205 29.5768 2.33705 29.3223 2.20127L25.3677 0.0918969C25.1255 -0.0373219 24.8334 -0.0299 24.598 0.111272C24.3627 0.252522 24.2188 0.506819 24.2188 0.781194V4.21869H13.5547C13.5467 4.21869 13.5391 4.21963 13.5311 4.21987C13.4999 4.21963 13.4688 4.21869 13.4375 4.21869C12.0815 4.21869 10.7748 4.50658 9.55406 5.07432C9.16281 5.25627 8.99312 5.72088 9.17508 6.11213C9.35703 6.50346 9.8218 6.67307 10.2129 6.49112C11.2259 6.0201 12.3108 5.78119 13.4375 5.78119C16.0337 5.78119 18.3318 7.08041 19.7169 9.06244H13.6036C12.8595 9.06244 12.2541 9.66776 12.2541 10.4118V18.6505C12.2541 19.3946 12.8595 19.9999 13.6036 19.9999H21.0938V21.2499H5.78125V13.4374C5.78125 12.3272 6.01344 11.2568 6.47133 10.256C6.65078 9.86362 6.47828 9.40002 6.08586 9.22049C5.69344 9.04096 5.22992 9.21354 5.05039 9.60596C4.49859 10.8122 4.21875 12.1013 4.21875 13.4374V21.2499H0.78125C0.349766 21.2499 0 21.5998 0 22.0312C0 24.1851 1.75234 25.9374 3.90625 25.9374H19.0625V34.2081C18.1923 33.4011 17.0286 32.9064 15.751 32.9064C14.5086 32.9064 13.3141 33.3837 12.4141 34.2284C12.3196 34.222 12.2252 34.2187 12.1316 34.2187C9.80531 34.2187 7.91281 36.1113 7.91281 38.4374H5C4.56852 38.4374 4.21875 38.7873 4.21875 39.2187C4.21875 39.6501 4.56852 39.9999 5 39.9999H35C35.4315 39.9999 35.7812 39.6501 35.7812 39.2187C35.7812 38.7873 35.4315 38.4374 35 38.4374H28.125V25.9374H39.2188C39.6502 25.9374 40 25.5876 40 25.1562V14.3749C40 11.8385 39.0598 9.40971 37.3526 7.53619ZM25.7812 2.08338L27.2946 2.89057L25.7812 3.69776V2.08338ZM19.0625 37.8184C19.0602 38.0275 19.0391 38.2345 18.9983 38.4374H9.47531C9.47539 36.9728 10.6669 35.7812 12.1316 35.7812C12.2771 35.7812 12.4262 35.7938 12.5746 35.8188C12.8384 35.8629 13.1067 35.7692 13.2854 35.5701C13.9135 34.8703 14.8122 34.4688 15.751 34.4688C17.5654 34.4688 19.043 35.9353 19.0625 37.7452V37.8184ZM20.5586 10.6249C20.8902 11.4616 21.0779 12.3701 21.0923 13.3199L19.943 14.4692C19.8596 14.5525 19.7623 14.565 19.7116 14.565C19.6609 14.565 19.5635 14.5526 19.4801 14.4691L15.6359 10.6249H20.5586ZM13.8166 11.0155L17.0409 14.2396L13.8166 17.4639V11.0155ZM15.0527 18.4374L18.1458 15.3445L18.3752 15.5739C18.7322 15.9309 19.2068 16.1275 19.7116 16.1275C20.2164 16.1275 20.691 15.9309 21.0479 15.574L21.0938 15.5281V18.4374H15.0527ZM3.90625 24.3749C2.88773 24.3749 2.01883 23.7219 1.69641 22.8124H21.0938V24.3749H3.90625ZM23.4375 38.4374H20.625V37.8225C20.6251 37.8088 20.6259 37.7951 20.6259 37.7813C20.6259 37.7692 20.6252 37.7574 20.625 37.7453V25.9374H23.4375V38.4374ZM26.5625 38.4374H25V25.9374H26.5625V38.4374Z" fill="#322E27"/>
<path d="M8.02816 6.92281C7.72526 6.61547 7.23058 6.61195 6.92331 6.91492C6.92331 6.91492 6.91597 6.92219 6.91448 6.92367C6.608 7.22672 6.60464 7.72078 6.90737 8.02781C7.06026 8.18297 7.2619 8.2607 7.46378 8.2607C7.66183 8.2607 7.86003 8.18586 8.01222 8.03578L8.02034 8.02766C8.32761 7.72469 8.33113 7.23008 8.02816 6.92281Z" fill="#322E27"/>
</g>
<defs>
<clipPath id="clip0_320_9206">
<rect width="40" height="40" fill="white"/>
</clipPath>
</defs>
</svg>
