<svg width="40" height="40" viewBox="0 0 40 40" fill="none" xmlns="http://www.w3.org/2000/svg">
<g clip-path="url(#clip0_311_9112)">
<path d="M13.3361 30.8242C11.7243 31.0077 10.5625 32.4694 10.7461 34.0828C10.8351 34.8631 11.2229 35.5624 11.8382 36.0519C12.3642 36.4703 13.0022 36.6922 13.6639 36.6922C13.7762 36.6922 13.8891 36.6858 14.0023 36.6729C15.6141 36.4894 16.776 35.0277 16.5924 33.4143C16.4086 31.8026 14.9479 30.6412 13.3361 30.8242ZM13.8253 35.1204C13.4597 35.1621 13.0994 35.0585 12.8107 34.829C12.5221 34.5994 12.3401 34.2715 12.2985 33.906C12.2123 33.1487 12.7571 32.4626 13.5128 32.3767C13.5655 32.3707 13.6179 32.3677 13.6698 32.3677C14.3613 32.3677 14.9597 32.8883 15.0398 33.5911C15.126 34.3483 14.5813 35.0344 13.8253 35.1204Z" fill="#322E27"/>
<path d="M26.2416 27.1326L21.5226 27.6708C21.094 27.7196 20.786 28.1068 20.8349 28.5354C20.8804 28.9341 21.2183 29.2282 21.6101 29.2282C21.6397 29.2282 21.6695 29.2266 21.6996 29.2232L26.4186 28.685C26.8472 28.6362 27.1552 28.249 27.1063 27.8204C27.0574 27.3917 26.6703 27.0833 26.2416 27.1326Z" fill="#322E27"/>
<path d="M28.1066 33.7712C27.6751 33.7712 27.3253 34.121 27.3253 34.5525C27.3253 34.984 27.6751 35.3337 28.1066 35.3337H28.111C28.5425 35.3337 28.8901 34.984 28.8901 34.5525C28.8901 34.121 28.538 33.7712 28.1066 33.7712Z" fill="#322E27"/>
<path d="M39.7067 31.4828C39.5488 30.1039 38.2987 29.1097 36.9199 29.2675L36.5755 29.3068L35.1649 16.9251C35.1415 16.7192 35.0372 16.5311 34.8751 16.4021C34.7129 16.2731 34.5061 16.2141 34.3003 16.2374L29.3607 16.8005L27.959 4.50816C27.9356 4.3023 27.8313 4.11418 27.6691 3.9852C27.5069 3.85629 27.3004 3.79715 27.0943 3.82043L14.8025 5.22236L14.5927 3.3813C14.4781 2.3728 13.9749 1.46742 13.1758 0.832042C12.377 0.196895 11.3815 -0.0898969 10.3732 0.0247888L2.50911 0.919462C1.12976 1.07743 0.135945 2.3278 0.293833 3.70653C0.451096 5.08369 1.70037 6.07884 3.08082 5.92431L9.72728 5.16479L10.8919 15.3787L7.63731 19.6395C7.51474 19.8 7.45903 20.0017 7.48192 20.2023L8.60956 30.087C7.72622 31.3069 7.27669 32.8463 7.45974 34.4568C7.64825 36.1153 8.47167 37.6011 9.77845 38.6404C10.8955 39.5289 12.2513 40 13.6582 40C13.8966 40 14.1365 39.9865 14.377 39.9592C16.6334 39.701 18.4739 38.2656 19.3557 36.3376L24.7115 35.7273C25.1402 35.6785 25.4481 35.2913 25.3992 34.8626C25.3504 34.4339 24.9638 34.126 24.5345 34.1749L19.8439 34.7094C19.9281 34.169 19.9437 33.6093 19.8786 33.0403C19.8689 32.9554 19.8566 32.8712 19.8436 32.7872L35.9643 30.9491C35.9684 30.9487 35.9723 30.9488 35.9763 30.9484C35.9809 30.9478 35.9852 30.9467 35.9897 30.9462L37.0971 30.8199C37.6196 30.7599 38.0945 31.1373 38.1543 31.6604C38.2141 32.1835 37.837 32.6579 37.3141 32.7177L31.5034 33.3799C31.0748 33.4287 30.7668 33.8159 30.8157 34.2446C30.8612 34.6432 31.1991 34.9374 31.5909 34.9374C31.6205 34.9374 31.6503 34.9358 31.6804 34.9324L35.723 34.4717L36.0162 36.5922C36.0708 36.9868 36.4086 37.2725 36.7959 37.2725C36.8319 37.2725 36.8683 37.2701 36.9048 37.265C37.3361 37.2054 37.6372 36.8076 37.5776 36.3763L37.2897 34.2932L37.4915 34.2702C38.8704 34.1121 39.8642 32.8619 39.7067 31.4828ZM22.1039 5.9622L22.4226 8.75918L21.4005 8.27177C21.131 8.14326 20.8117 8.17958 20.578 8.36552L19.6901 9.07168L19.3712 6.27383L22.1039 5.9622ZM17.8189 6.45094L18.2973 10.6488C18.3295 10.9309 18.5121 11.1734 18.7745 11.282C18.8709 11.322 18.9724 11.3415 19.0734 11.3415C19.2472 11.3415 19.4192 11.2835 19.5598 11.1717L21.1686 9.89221L23.0222 10.7761C23.2786 10.8984 23.581 10.8719 23.8122 10.7069C24.0434 10.542 24.1669 10.2646 24.1347 9.98245L23.6563 5.78517L26.4951 5.46142L27.8082 16.9773L16.2919 18.2901L14.9795 6.77476L17.8189 6.45094ZM27.1791 22.2166L25.8096 21.5634C25.5401 21.4348 25.2208 21.4712 24.987 21.657L23.7983 22.6023L23.3946 19.053L26.7741 18.6678L27.1791 22.2166ZM2.90528 4.37167C2.38099 4.43027 1.90592 4.05238 1.84615 3.52895C1.78623 3.00599 2.16341 2.5317 2.68622 2.47186L6.78889 2.00507L7.00576 3.90309L2.90528 4.37167ZM10.3263 3.52372L8.55824 3.72575L8.34152 1.82851L10.5498 1.57726C11.1436 1.50977 11.7311 1.67937 12.2034 2.05499C12.6756 2.43053 12.9729 2.9642 13.0403 3.55802L14.8264 19.2281C14.8269 19.2332 14.8268 19.2383 14.8274 19.2435C14.828 19.2486 14.8292 19.2536 14.8299 19.2587L15.812 27.8756C15.1842 27.6458 14.5224 27.5181 13.8466 27.5002L11.1912 4.21152C11.1678 4.00559 11.0634 3.81746 10.9012 3.68856C10.739 3.55942 10.5321 3.50044 10.3263 3.52372ZM11.1473 17.6184L12.2913 27.6524C11.4537 27.8415 10.687 28.1966 10.0213 28.6775L9.06995 20.3379L11.1473 17.6184ZM14.1999 38.4067C12.9554 38.548 11.7308 38.1968 10.751 37.4175C9.77111 36.6381 9.15362 35.524 9.01229 34.2803C8.72042 31.7122 10.5716 29.3839 13.1391 29.0903C14.3828 28.949 15.6076 29.3003 16.5874 30.0796C17.5673 30.8589 18.1848 31.973 18.3262 33.2172C18.6198 35.7849 16.7686 38.1129 14.1999 38.4067ZM19.4076 31.2642C19.0055 30.3317 18.3773 29.5068 17.5598 28.8568C17.537 28.8386 17.5133 28.822 17.4904 28.8043L16.4689 19.8426L21.8422 19.2301L22.4051 24.1795C22.4372 24.4617 22.6199 24.7042 22.8822 24.8129C22.9786 24.8528 23.0802 24.8724 23.1811 24.8724C23.355 24.8724 23.5269 24.8145 23.6675 24.7027L25.5774 23.1839L27.7787 24.2338C28.0351 24.3561 28.3375 24.3296 28.5688 24.1646C28.8 23.9997 28.9235 23.7222 28.8913 23.4401L28.3265 18.491L33.7009 17.8783L35.0231 29.4837L19.4076 31.2642Z" fill="#322E27"/>
</g>
<defs>
<clipPath id="clip0_311_9112">
<rect width="40" height="40" fill="white"/>
</clipPath>
</defs>
</svg>
