<svg width="40" height="40" viewBox="0 0 40 40" fill="none" xmlns="http://www.w3.org/2000/svg">
<g clip-path="url(#clip0_320_9257)">
<path fill-rule="evenodd" clip-rule="evenodd" d="M26.4949 25.73C25.5231 25.73 24.5925 25.9076 23.7338 26.2323L13.1977 26.2321C13.0477 26.2321 12.9209 26.3591 12.9209 26.5094V28.8597C13.694 29.433 14.1964 30.3526 14.1964 31.3882C14.1964 32.4235 13.6941 33.3433 12.9209 33.9166V38.1578C12.9209 38.3094 13.0477 38.4375 13.1977 38.4375H16.4981C16.9288 38.4375 17.278 38.7873 17.278 39.2187C17.278 39.6502 16.9288 40 16.4981 40H13.1977C12.185 40 11.3612 39.1736 11.3612 38.1578V34.5173C11.2613 34.5268 11.1602 34.5322 11.0579 34.5322H9.1148C7.99605 34.5322 7.08594 33.6204 7.08594 32.4997V30.2764C7.08594 29.7196 7.31078 29.2145 7.67397 28.8472V25.7322C7.67397 25.7279 7.67397 25.7236 7.67405 25.7193C7.70961 23.5525 8.52341 21.9492 10.1621 20.8181C11.5264 19.8764 13.2433 19.4129 14.9038 18.9648C15.3769 18.8371 15.8315 18.7144 16.2686 18.5835V16.9297C14.4895 15.7253 13.3175 13.686 13.3175 11.3777V10.5411C13.2274 10.4731 13.1405 10.3987 13.0584 10.3167C12.1831 9.4398 12.1072 8.06262 12.829 7.09912V3.96569C12.829 1.77898 14.6048 0 16.7877 0H23.2138C25.3966 0 27.1726 1.77898 27.1726 3.96569V7.09903C27.8944 8.06255 27.8187 9.43973 26.9442 10.3157C26.8617 10.398 26.7747 10.4727 26.6841 10.5408V11.3777C26.6841 13.6864 25.5121 15.726 23.7329 16.9303V18.5835C24.1677 18.7137 24.6199 18.8357 25.0904 18.9627L25.0978 18.9648C26.7582 19.4129 28.4754 19.8764 29.8395 20.8181C31.478 21.9492 32.292 23.5525 32.3276 25.7193L32.3277 25.7245V28.3448C31.8696 27.8317 31.3451 27.3794 30.7677 27.0014V25.739C30.7394 24.094 30.1631 22.9392 28.9543 22.1048C27.8108 21.3152 26.2255 20.8874 24.6922 20.4735C24.3288 20.3754 23.9586 20.2748 23.5927 20.1695C23.1509 21.7399 21.7089 22.8949 20.0018 22.8949C18.2938 22.8949 16.851 21.7399 16.4089 20.1695C16.0427 20.2748 15.673 20.3752 15.3095 20.4734C13.7762 20.8872 12.1908 21.3152 11.0471 22.1048C9.83837 22.9392 9.26204 24.094 9.23365 25.739V28.2439H11.0579C11.1602 28.2439 11.2613 28.2493 11.3612 28.2588V26.5094C11.3612 25.4951 12.185 24.6696 13.1977 24.6696H26.8038C27.6449 24.6696 28.3557 25.2373 28.5737 26.0099C27.9118 25.8274 27.2147 25.73 26.4949 25.73ZM14.3888 3.96569C14.3888 2.64054 15.4649 1.56249 16.7877 1.56249H23.2138C24.5367 1.56249 25.6128 2.64054 25.6128 3.96569V5.71568C23.9783 4.57053 22.037 3.95342 20.0007 3.95342C17.9645 3.95342 16.0232 4.57046 14.3888 5.71568V3.96569ZM14.1603 9.21091C13.8105 8.86036 13.8105 8.29012 14.1602 7.93959C15.7203 6.37677 17.7946 5.516 20.0007 5.516C22.2068 5.516 24.2811 6.3767 25.8411 7.9395C26.191 8.29004 26.191 8.86043 25.8422 9.20997C25.4924 9.5591 24.9234 9.55917 24.5745 9.21091C23.3527 7.98692 21.7288 7.31286 20.002 7.31286C18.2752 7.31286 16.6513 7.98692 15.4304 9.20997C15.08 9.5598 14.5099 9.5598 14.1603 9.21091ZM14.8773 11.3777V11.0316C15.4785 11.0115 16.074 10.7733 16.5323 10.3157C17.4595 9.38692 18.6917 8.87535 20.0018 8.87535C21.3121 8.87535 22.5442 9.38683 23.4725 10.3167C23.9297 10.7732 24.5238 11.0109 25.1243 11.0311V11.3778C25.1243 14.2085 22.8264 16.5115 20.0018 16.5115C17.1762 16.5114 14.8773 14.2085 14.8773 11.3777ZM22.1731 17.7091V19.1573C22.1731 20.3568 21.1991 21.3326 20.0018 21.3326C18.8034 21.3326 17.8284 20.3568 17.8284 19.1573V17.7085C18.5103 17.9442 19.2411 18.0739 20.0018 18.0739C20.7618 18.0739 21.4919 17.9444 22.1731 17.7091ZM9.1148 32.9697C8.85611 32.9697 8.6457 32.7589 8.6457 32.4997V30.2764C8.6457 30.0172 8.85611 29.8065 9.1148 29.8065H11.0579C11.9284 29.8065 12.6367 30.5161 12.6367 31.3882C12.6367 32.2603 11.9284 32.9697 11.0579 32.9697H9.1148Z" fill="#322E27"/>
<path d="M20.6312 38.7555C20.6037 38.7243 20.5763 38.6929 20.5494 38.6612C20.4084 38.5227 20.2152 38.4373 20.0023 38.4373C19.5716 38.4373 19.2224 38.7871 19.2224 39.2187C19.2224 39.65 19.5716 39.9998 20.0023 39.9998H20.0045C20.4353 39.9998 20.7833 39.65 20.7833 39.2187C20.7833 39.0452 20.7268 38.885 20.6312 38.7555Z" fill="#322E27"/>
<path d="M26.4955 38.504C29.2169 38.504 31.4228 36.2938 31.4228 33.5675C31.4228 33.5213 31.4223 33.475 31.421 33.4291L32.8112 32.4029C32.88 32.7806 32.9161 33.1699 32.9161 33.5675C32.9161 37.12 30.0415 40 26.4955 40C22.9496 40 20.075 37.12 20.075 33.5675C20.075 30.0149 22.9496 27.1349 26.4955 27.1349C28.0271 27.1349 29.4336 27.6723 30.5371 28.569L30.5277 28.5638C30.5254 28.5625 30.5231 28.5611 30.5208 28.5598C30.5182 28.5584 30.5157 28.557 30.5132 28.5557L29.3037 29.5105C28.5069 28.9559 27.539 28.6309 26.4955 28.6309C23.7742 28.6309 21.5681 30.8411 21.5681 33.5675C21.5681 36.2938 23.7742 38.504 26.4955 38.504Z" fill="#322E27"/>
<path d="M24.0921 31.91V33.7254L26.4555 35.2249L32.2458 30.9629L31.458 29.7396L26.4555 33.3702L24.0921 31.91Z" fill="#322E27"/>
</g>
<defs>
<clipPath id="clip0_320_9257">
<rect width="40" height="40" fill="white"/>
</clipPath>
</defs>
</svg>
