<svg width="40" height="40" viewBox="0 0 40 40" fill="none" xmlns="http://www.w3.org/2000/svg">
<g clip-path="url(#clip0_311_9066)">
<path d="M35.48 24.1276H34.5876V19.3775C34.5876 17.6037 33.1446 16.1607 31.3709 16.1607H30.2927L33.4371 10.2051C33.7645 9.58492 33.8306 8.87444 33.6229 8.20458C33.415 7.53394 32.9579 6.98448 32.3356 6.65736L20.2443 0.30216C18.962 -0.371916 17.3688 0.121141 16.6928 1.40109L8.90018 16.1607H6.95889C5.18518 16.1607 3.74219 17.6037 3.74219 19.3775V36.7835C3.74219 38.5572 5.18518 40.0003 6.95889 40.0003H31.3709C33.1446 40.0003 34.5877 38.5572 34.5877 36.7835V32.0333H35.4801C35.9116 32.0333 36.2613 31.6835 36.2613 31.2521V24.9089C36.2613 24.4774 35.9115 24.1276 35.48 24.1276ZM18.0746 2.13063C18.3489 1.61109 18.9961 1.41132 19.5173 1.68523L31.6088 8.04044C31.8611 8.17302 32.0464 8.3956 32.1306 8.66709C32.2145 8.93772 32.1877 9.22483 32.0554 9.47554L28.5259 16.1607H26.4287L28.4222 12.385C28.5191 12.2015 28.539 11.9871 28.4775 11.7889C28.4161 11.5907 28.2784 11.4252 28.0948 11.3286C27.583 11.0596 27.2069 10.6079 27.0362 10.0568C26.8658 9.50703 26.92 8.92381 27.1888 8.41458C27.2857 8.23106 27.3056 8.01668 27.2441 7.81848C27.1827 7.62035 27.045 7.4548 26.8614 7.35823L22.7611 5.20319C22.3797 5.0028 21.9079 5.14882 21.7067 5.53C21.1504 6.58361 19.8382 6.98893 18.7817 6.43376C18.4004 6.23337 17.9286 6.37947 17.7273 6.76057L12.7643 16.1606H10.6671L18.0746 2.13063ZM25.5436 10.5194C25.7594 11.2157 26.165 11.8199 26.7131 12.2754L24.6618 16.1607H14.5312L18.7833 8.10723C20.1905 8.50154 21.7145 8.03059 22.6515 6.91088L25.5142 8.41552C25.3207 9.09913 25.3283 9.82469 25.5436 10.5194ZM33.0252 36.7835C33.0252 37.6957 32.2831 38.4377 31.3709 38.4377H6.95889C6.04676 38.4377 5.30472 37.6957 5.30472 36.7835V19.3775C5.30472 18.4652 6.04676 17.7232 6.95889 17.7232H31.3709C32.2831 17.7232 33.0252 18.4652 33.0252 19.3775V24.1276H29.9746C27.7951 24.1276 26.0218 25.9009 26.0218 28.0805C26.0218 30.2602 27.795 32.0334 29.9746 32.0334H33.0252V36.7835ZM34.6987 30.4708H29.9746C28.6565 30.4708 27.5842 29.3984 27.5842 28.0804C27.5842 26.7624 28.6565 25.6901 29.9746 25.6901H34.6987V30.4708Z" fill="#322E27"/>
</g>
<defs>
<clipPath id="clip0_311_9066">
<rect width="40" height="40" fill="white"/>
</clipPath>
</defs>
</svg>
