<svg width="12" height="16" viewBox="0 0 12 16" fill="none" xmlns="http://www.w3.org/2000/svg">
<path fill-rule="evenodd" clip-rule="evenodd" d="M11 6C11 6.6563 10.795 7.56664 10.4064 8.61203C10.0239 9.64099 9.48937 10.7322 8.89224 11.7286C8.29259 12.7292 7.64962 13.6011 7.0624 14.2083C6.76816 14.5126 6.50997 14.7274 6.29938 14.8599C6.10915 14.9796 6.01389 14.997 6.00003 14.9996L6 14.9996L5.99997 14.9996C5.98611 14.997 5.89085 14.9796 5.70062 14.8599C5.49003 14.7274 5.23184 14.5126 4.9376 14.2083C4.35038 13.6011 3.70741 12.7292 3.10776 11.7286C2.51063 10.7322 1.97609 9.64099 1.59358 8.61203C1.20497 7.56664 1 6.6563 1 6C1 3.23858 3.23858 1 6 1C8.76142 1 11 3.23858 11 6ZM12 6C12 9.31371 8 16 6 16C4 16 0 9.31371 0 6C0 2.68629 2.68629 0 6 0C9.31371 0 12 2.68629 12 6ZM8 6C8 7.10457 7.10457 8 6 8C4.89543 8 4 7.10457 4 6C4 4.89543 4.89543 4 6 4C7.10457 4 8 4.89543 8 6ZM9 6C9 7.65685 7.65685 9 6 9C4.34315 9 3 7.65685 3 6C3 4.34315 4.34315 3 6 3C7.65685 3 9 4.34315 9 6Z" fill="#CFD8E3"/>
</svg>
