<svg width="16" height="12" viewBox="0 0 16 12" fill="none" xmlns="http://www.w3.org/2000/svg">
<path fill-rule="evenodd" clip-rule="evenodd" d="M2 1.5H14C14.5523 1.5 15 1.94772 15 2.5V9.5C15 10.0523 14.5523 10.5 14 10.5H2C1.44772 10.5 1 10.0523 1 9.5V2.5C1 1.94772 1.44772 1.5 2 1.5ZM0 2.5C0 1.39543 0.895431 0.5 2 0.5H14C15.1046 0.5 16 1.39543 16 2.5V9.5C16 10.6046 15.1046 11.5 14 11.5H2C0.895431 11.5 0 10.6046 0 9.5V2.5ZM3.25725 3.07125C3.02046 2.92918 2.71333 3.00596 2.57125 3.24275C2.42918 3.47954 2.50596 3.78667 2.74275 3.92875L7.74275 6.92875L8 7.0831L8.25725 6.92875L13.2572 3.92875C13.494 3.78667 13.5708 3.47954 13.4287 3.24275C13.2867 3.00596 12.9795 2.92918 12.7428 3.07125L8 5.9169L3.25725 3.07125Z" fill="#CFD8E3"/>
</svg>
