<svg width="14" height="14" viewBox="0 0 14 14" fill="none" xmlns="http://www.w3.org/2000/svg">
<path fill-rule="evenodd" clip-rule="evenodd" d="M12.5717 9.63334C12.1919 9.25347 11.8892 8.95186 11.6042 8.73016C11.3228 8.51131 11.101 8.40506 10.8962 8.3758C10.5054 8.31997 9.91866 8.51717 8.80262 9.63334C8.61395 9.82203 8.35308 9.8804 8.14101 9.89046C7.91178 9.90132 7.65268 9.86119 7.37871 9.77208C6.82822 9.59302 6.1721 9.2019 5.48444 8.51417C4.7968 7.82644 4.40572 7.1703 4.22668 6.61978C4.13757 6.34579 4.09744 6.08668 4.10831 5.85743C4.11836 5.64533 4.17674 5.38445 4.3654 5.19578C5.48144 4.07961 5.67862 3.49276 5.62279 3.10192C5.59354 2.89713 5.4873 2.67527 5.26847 2.39389C5.04679 2.10885 4.74522 1.80609 4.3654 1.42623C3.92036 0.981138 3.43314 0.932765 2.95577 1.06121C2.45069 1.19711 1.9833 1.53128 1.71532 1.79928C0.751381 2.76334 0.83438 4.16648 1.52947 5.72832C2.21453 7.26761 3.4205 8.76627 4.32643 9.67231C5.23236 10.5783 6.73089 11.7845 8.27005 12.4696C9.83175 13.1648 11.2348 13.2478 12.1987 12.2837C12.4667 12.0157 12.8008 11.5483 12.9367 11.0431C13.0651 10.5657 13.0168 10.0784 12.5717 9.63334ZM11.0376 7.3858C10.1334 7.2566 9.23837 7.79151 8.13408 8.8878C8.12427 8.88927 8.11098 8.8907 8.09367 8.89152C8.01128 8.89543 7.87468 8.88178 7.68798 8.82105C7.31713 8.70043 6.79203 8.40761 6.19151 7.80702C5.59098 7.20642 5.29819 6.68129 5.17759 6.31045C5.11687 6.12375 5.10323 5.98716 5.10713 5.90478C5.10795 5.88748 5.10939 5.87419 5.11085 5.86439C6.20702 4.75997 6.74187 3.86487 6.61268 2.96049C6.54868 2.51243 6.32854 2.12807 6.05778 1.77992C5.79376 1.44043 5.44885 1.0955 5.08841 0.735027L5.08841 0.735023L5.07246 0.719078C4.32385 -0.0296204 3.44335 -0.105599 2.69599 0.0954909C1.97633 0.289126 1.36197 0.738379 1.00826 1.09214C-0.4151 2.51566 -0.125083 4.46995 0.615935 6.13498C1.36699 7.82257 2.66022 9.4202 3.61937 10.3795C4.57851 11.3387 6.17601 12.6321 7.86344 13.3832C9.52832 14.1243 11.4824 14.4144 12.9058 12.9909C13.2595 12.6371 13.7087 12.0227 13.9023 11.3029C14.1034 10.5555 14.0274 9.67489 13.2788 8.92619L13.2629 8.91025L13.2629 8.91024C12.9024 8.54976 12.5575 8.20481 12.2181 7.94076C11.87 7.66998 11.4857 7.4498 11.0376 7.3858ZM5.11581 5.84186C5.11577 5.84181 5.11539 5.84276 5.1148 5.84482C5.11556 5.84293 5.11586 5.8419 5.11581 5.84186ZM8.15365 8.88385C8.15571 8.88326 8.15666 8.88288 8.15662 8.88283C8.15658 8.88279 8.15555 8.88308 8.15365 8.88385Z" fill="#CFD8E3"/>
</svg>
