<svg width="50" height="50" viewBox="0 0 50 50" fill="none" xmlns="http://www.w3.org/2000/svg">
<path d="M13 39C12.4477 39 12 39.4477 12 40C12 40.5523 12.4477 41 13 41H37C37.5523 41 38 40.5523 38 40C38 39.4477 37.5523 39 37 39H13Z" fill="#CFD8E3"/>
<path d="M23.5 17C22.9477 17 22.5 17.4477 22.5 18C22.5 18.5523 22.9477 19 23.5 19H24.5V25.5C24.5 26.0523 24.9477 26.5 25.5 26.5C26.0523 26.5 26.5 26.0523 26.5 25.5V18.05C26.5 17.4701 26.0299 17 25.45 17H23.5Z" fill="#CFD8E3"/>
<path fill-rule="evenodd" clip-rule="evenodd" d="M11.5 21C11.5 13.5442 17.5442 7.5 25 7.5C32.4558 7.5 38.5 13.5442 38.5 21C38.5 28.4558 32.4558 34.5 25 34.5C17.5442 34.5 11.5 28.4558 11.5 21ZM25 9.5C18.6487 9.5 13.5 14.6487 13.5 21C13.5 27.3513 18.6487 32.5 25 32.5C31.3513 32.5 36.5 27.3513 36.5 21C36.5 14.6487 31.3513 9.5 25 9.5Z" fill="#CFD8E3"/>
<path fill-rule="evenodd" clip-rule="evenodd" d="M3.5 0C1.567 0 0 1.567 0 3.5V46.5C0 48.433 1.567 50 3.5 50H46.5C48.433 50 50 48.433 50 46.5V3.5C50 1.567 48.433 0 46.5 0H3.5ZM2 3.5C2 2.67157 2.67157 2 3.5 2H46.5C47.3284 2 48 2.67157 48 3.5V46.5C48 47.3284 47.3284 48 46.5 48H3.5C2.67157 48 2 47.3284 2 46.5V3.5Z" fill="#CFD8E3"/>
<path d="M13 39C12.4477 39 12 39.4477 12 40C12 40.5523 12.4477 41 13 41H37C37.5523 41 38 40.5523 38 40C38 39.4477 37.5523 39 37 39H13Z" fill="#CFD8E3"/>
<path d="M23.5 17C22.9477 17 22.5 17.4477 22.5 18C22.5 18.5523 22.9477 19 23.5 19H24.5V25.5C24.5 26.0523 24.9477 26.5 25.5 26.5C26.0523 26.5 26.5 26.0523 26.5 25.5V18.05C26.5 17.4701 26.0299 17 25.45 17H23.5Z" fill="#CFD8E3"/>
<path fill-rule="evenodd" clip-rule="evenodd" d="M11.5 21C11.5 13.5442 17.5442 7.5 25 7.5C32.4558 7.5 38.5 13.5442 38.5 21C38.5 28.4558 32.4558 34.5 25 34.5C17.5442 34.5 11.5 28.4558 11.5 21ZM25 9.5C18.6487 9.5 13.5 14.6487 13.5 21C13.5 27.3513 18.6487 32.5 25 32.5C31.3513 32.5 36.5 27.3513 36.5 21C36.5 14.6487 31.3513 9.5 25 9.5Z" fill="#CFD8E3"/>
<path fill-rule="evenodd" clip-rule="evenodd" d="M3.5 0C1.567 0 0 1.567 0 3.5V46.5C0 48.433 1.567 50 3.5 50H46.5C48.433 50 50 48.433 50 46.5V3.5C50 1.567 48.433 0 46.5 0H3.5ZM2 3.5C2 2.67157 2.67157 2 3.5 2H46.5C47.3284 2 48 2.67157 48 3.5V46.5C48 47.3284 47.3284 48 46.5 48H3.5C2.67157 48 2 47.3284 2 46.5V3.5Z" fill="#CFD8E3"/>
</svg>
