<svg width="50" height="51" viewBox="0 0 50 51" fill="none" xmlns="http://www.w3.org/2000/svg">
<path d="M7 13.4976C6.44772 13.4976 6 13.9453 6 14.4976C6 15.0498 6.44772 15.4976 7 15.4976H30C30.5523 15.4976 31 15.0498 31 14.4976C31 13.9453 30.5523 13.4976 30 13.4976H7Z" fill="#CFD8E3"/>
<path d="M31 23.4976C31 24.0498 30.5523 24.4976 30 24.4976C29.4477 24.4976 29 24.0498 29 23.4976C29 22.9453 29.4477 22.4976 30 22.4976C30.5523 22.4976 31 22.9453 31 23.4976Z" fill="#CFD8E3"/>
<path fill-rule="evenodd" clip-rule="evenodd" d="M0 11.9976C0 8.68385 2.68629 5.99756 6 5.99756H31C34.3137 5.99756 37 8.68385 37 11.9976V24.4976C37 27.8113 34.3137 30.4976 31 30.4976H6C2.68629 30.4976 0 27.8113 0 24.4976V11.9976ZM6 7.99756C3.79086 7.99756 2 9.78842 2 11.9976V24.4976C2 26.7067 3.79086 28.4976 6 28.4976H31C33.2091 28.4976 35 26.7067 35 24.4976V11.9976C35 9.78842 33.2091 7.99756 31 7.99756H6Z" fill="#CFD8E3"/>
<path d="M40.25 22.4976C40.25 21.9453 40.6977 21.4976 41.25 21.4976H44C47.3137 21.4976 50 24.1838 50 27.4976V39.9976C50 43.3113 47.3137 45.9976 44 45.9976H19C15.6863 45.9976 13 43.3113 13 39.9976V33.7476C13 33.1953 13.4477 32.7476 14 32.7476C14.5523 32.7476 15 33.1953 15 33.7476V39.9976C15 42.2067 16.7909 43.9976 19 43.9976H44C46.2091 43.9976 48 42.2067 48 39.9976V27.4976C48 25.2884 46.2091 23.4976 44 23.4976H41.25C40.6977 23.4976 40.25 23.0498 40.25 22.4976Z" fill="#CFD8E3"/>
<path d="M43 39.9976C43.5523 39.9976 44 39.5498 44 38.9976C44 38.4453 43.5523 37.9976 43 37.9976C42.4477 37.9976 42 38.4453 42 38.9976C42 39.5498 42.4477 39.9976 43 39.9976Z" fill="#CFD8E3"/>
<path d="M7 13.4976C6.44772 13.4976 6 13.9453 6 14.4976C6 15.0498 6.44772 15.4976 7 15.4976H30C30.5523 15.4976 31 15.0498 31 14.4976C31 13.9453 30.5523 13.4976 30 13.4976H7Z" fill="#CFD8E3"/>
<path d="M31 23.4976C31 24.0498 30.5523 24.4976 30 24.4976C29.4477 24.4976 29 24.0498 29 23.4976C29 22.9453 29.4477 22.4976 30 22.4976C30.5523 22.4976 31 22.9453 31 23.4976Z" fill="#CFD8E3"/>
<path fill-rule="evenodd" clip-rule="evenodd" d="M0 11.9976C0 8.68385 2.68629 5.99756 6 5.99756H31C34.3137 5.99756 37 8.68385 37 11.9976V24.4976C37 27.8113 34.3137 30.4976 31 30.4976H6C2.68629 30.4976 0 27.8113 0 24.4976V11.9976ZM6 7.99756C3.79086 7.99756 2 9.78842 2 11.9976V24.4976C2 26.7067 3.79086 28.4976 6 28.4976H31C33.2091 28.4976 35 26.7067 35 24.4976V11.9976C35 9.78842 33.2091 7.99756 31 7.99756H6Z" fill="#CFD8E3"/>
<path d="M40.25 22.4976C40.25 21.9453 40.6977 21.4976 41.25 21.4976H44C47.3137 21.4976 50 24.1838 50 27.4976V39.9976C50 43.3113 47.3137 45.9976 44 45.9976H19C15.6863 45.9976 13 43.3113 13 39.9976V33.7476C13 33.1953 13.4477 32.7476 14 32.7476C14.5523 32.7476 15 33.1953 15 33.7476V39.9976C15 42.2067 16.7909 43.9976 19 43.9976H44C46.2091 43.9976 48 42.2067 48 39.9976V27.4976C48 25.2884 46.2091 23.4976 44 23.4976H41.25C40.6977 23.4976 40.25 23.0498 40.25 22.4976Z" fill="#CFD8E3"/>
<path d="M43 39.9976C43.5523 39.9976 44 39.5498 44 38.9976C44 38.4453 43.5523 37.9976 43 37.9976C42.4477 37.9976 42 38.4453 42 38.9976C42 39.5498 42.4477 39.9976 43 39.9976Z" fill="#CFD8E3"/>
</svg>
