<svg width="50" height="51" viewBox="0 0 50 51" fill="none" xmlns="http://www.w3.org/2000/svg">
<path fill-rule="evenodd" clip-rule="evenodd" d="M20.5 11.9976C20.5 9.51228 22.5147 7.49756 25 7.49756C27.4853 7.49756 29.5 9.51228 29.5 11.9976C29.5 14.4828 27.4853 16.4976 25 16.4976C22.5147 16.4976 20.5 14.4828 20.5 11.9976ZM25 9.49756C23.6193 9.49756 22.5 10.6168 22.5 11.9976C22.5 13.3783 23.6193 14.4976 25 14.4976C26.3807 14.4976 27.5 13.3783 27.5 11.9976C27.5 10.6168 26.3807 9.49756 25 9.49756Z" fill="#CFD8E3"/>
<path fill-rule="evenodd" clip-rule="evenodd" d="M14 11.9976C14 5.92243 18.9249 0.997559 25 0.997559C31.0751 0.997559 36 5.92243 36 11.9976C36 18.0727 31.0751 22.9976 25 22.9976C18.9249 22.9976 14 18.0727 14 11.9976ZM25 2.99756C20.0294 2.99756 16 7.027 16 11.9976C16 16.9681 20.0294 20.9976 25 20.9976C29.9706 20.9976 34 16.9681 34 11.9976C34 7.027 29.9706 2.99756 25 2.99756Z" fill="#CFD8E3"/>
<path fill-rule="evenodd" clip-rule="evenodd" d="M25 38.9976C21.6863 38.9976 19 41.6838 19 44.9976C19 48.3113 21.6863 50.9976 25 50.9976C28.3137 50.9976 31 48.3113 31 44.9976C31 41.6838 28.3137 38.9976 25 38.9976ZM21 44.9976C21 42.7884 22.7909 40.9976 25 40.9976C27.2091 40.9976 29 42.7884 29 44.9976C29 47.2067 27.2091 48.9976 25 48.9976C22.7909 48.9976 21 47.2067 21 44.9976Z" fill="#CFD8E3"/>
<path fill-rule="evenodd" clip-rule="evenodd" d="M0 44.9976C0 41.6838 2.68629 38.9976 6 38.9976C9.31371 38.9976 12 41.6838 12 44.9976C12 48.3113 9.31371 50.9976 6 50.9976C2.68629 50.9976 0 48.3113 0 44.9976ZM6 40.9976C3.79086 40.9976 2 42.7884 2 44.9976C2 47.2067 3.79086 48.9976 6 48.9976C8.20914 48.9976 10 47.2067 10 44.9976C10 42.7884 8.20914 40.9976 6 40.9976Z" fill="#CFD8E3"/>
<path fill-rule="evenodd" clip-rule="evenodd" d="M44 38.9976C40.6863 38.9976 38 41.6838 38 44.9976C38 48.3113 40.6863 50.9976 44 50.9976C47.3137 50.9976 50 48.3113 50 44.9976C50 41.6838 47.3137 38.9976 44 38.9976ZM40 44.9976C40 42.7884 41.7909 40.9976 44 40.9976C46.2091 40.9976 48 42.7884 48 44.9976C48 47.2067 46.2091 48.9976 44 48.9976C41.7909 48.9976 40 47.2067 40 44.9976Z" fill="#CFD8E3"/>
<path d="M5 35.4976C5 32.1838 7.68629 29.4976 11 29.4976H24V26.4976C24 25.9453 24.4477 25.4976 25 25.4976C25.5523 25.4976 26 25.9453 26 26.4976V29.4976H39C42.3137 29.4976 45 32.1839 45 35.4976C45 36.0498 44.5523 36.4976 44 36.4976C43.4477 36.4976 43 36.0498 43 35.4976C43 33.2884 41.2091 31.4976 39 31.4976H26V35.4976C26 36.0498 25.5523 36.4976 25 36.4976C24.4477 36.4976 24 36.0498 24 35.4976V31.4976H11C8.79086 31.4976 7 33.2884 7 35.4976C7 36.0498 6.55228 36.4976 6 36.4976C5.44772 36.4976 5 36.0498 5 35.4976Z" fill="#CFD8E3"/>
<path fill-rule="evenodd" clip-rule="evenodd" d="M20.5 11.9976C20.5 9.51228 22.5147 7.49756 25 7.49756C27.4853 7.49756 29.5 9.51228 29.5 11.9976C29.5 14.4828 27.4853 16.4976 25 16.4976C22.5147 16.4976 20.5 14.4828 20.5 11.9976ZM25 9.49756C23.6193 9.49756 22.5 10.6168 22.5 11.9976C22.5 13.3783 23.6193 14.4976 25 14.4976C26.3807 14.4976 27.5 13.3783 27.5 11.9976C27.5 10.6168 26.3807 9.49756 25 9.49756Z" fill="#CFD8E3"/>
<path fill-rule="evenodd" clip-rule="evenodd" d="M14 11.9976C14 5.92243 18.9249 0.997559 25 0.997559C31.0751 0.997559 36 5.92243 36 11.9976C36 18.0727 31.0751 22.9976 25 22.9976C18.9249 22.9976 14 18.0727 14 11.9976ZM25 2.99756C20.0294 2.99756 16 7.027 16 11.9976C16 16.9681 20.0294 20.9976 25 20.9976C29.9706 20.9976 34 16.9681 34 11.9976C34 7.027 29.9706 2.99756 25 2.99756Z" fill="#CFD8E3"/>
<path fill-rule="evenodd" clip-rule="evenodd" d="M25 38.9976C21.6863 38.9976 19 41.6838 19 44.9976C19 48.3113 21.6863 50.9976 25 50.9976C28.3137 50.9976 31 48.3113 31 44.9976C31 41.6838 28.3137 38.9976 25 38.9976ZM21 44.9976C21 42.7884 22.7909 40.9976 25 40.9976C27.2091 40.9976 29 42.7884 29 44.9976C29 47.2067 27.2091 48.9976 25 48.9976C22.7909 48.9976 21 47.2067 21 44.9976Z" fill="#CFD8E3"/>
<path fill-rule="evenodd" clip-rule="evenodd" d="M0 44.9976C0 41.6838 2.68629 38.9976 6 38.9976C9.31371 38.9976 12 41.6838 12 44.9976C12 48.3113 9.31371 50.9976 6 50.9976C2.68629 50.9976 0 48.3113 0 44.9976ZM6 40.9976C3.79086 40.9976 2 42.7884 2 44.9976C2 47.2067 3.79086 48.9976 6 48.9976C8.20914 48.9976 10 47.2067 10 44.9976C10 42.7884 8.20914 40.9976 6 40.9976Z" fill="#CFD8E3"/>
<path fill-rule="evenodd" clip-rule="evenodd" d="M44 38.9976C40.6863 38.9976 38 41.6838 38 44.9976C38 48.3113 40.6863 50.9976 44 50.9976C47.3137 50.9976 50 48.3113 50 44.9976C50 41.6838 47.3137 38.9976 44 38.9976ZM40 44.9976C40 42.7884 41.7909 40.9976 44 40.9976C46.2091 40.9976 48 42.7884 48 44.9976C48 47.2067 46.2091 48.9976 44 48.9976C41.7909 48.9976 40 47.2067 40 44.9976Z" fill="#CFD8E3"/>
<path d="M5 35.4976C5 32.1838 7.68629 29.4976 11 29.4976H24V26.4976C24 25.9453 24.4477 25.4976 25 25.4976C25.5523 25.4976 26 25.9453 26 26.4976V29.4976H39C42.3137 29.4976 45 32.1839 45 35.4976C45 36.0498 44.5523 36.4976 44 36.4976C43.4477 36.4976 43 36.0498 43 35.4976C43 33.2884 41.2091 31.4976 39 31.4976H26V35.4976C26 36.0498 25.5523 36.4976 25 36.4976C24.4477 36.4976 24 36.0498 24 35.4976V31.4976H11C8.79086 31.4976 7 33.2884 7 35.4976C7 36.0498 6.55228 36.4976 6 36.4976C5.44772 36.4976 5 36.0498 5 35.4976Z" fill="#CFD8E3"/>
</svg>
