<svg width="50" height="50" viewBox="0 0 50 50" fill="none" xmlns="http://www.w3.org/2000/svg">
<path d="M26 1C26 0.447715 25.5523 0 25 0C24.4477 0 24 0.447715 24 1V7.5057C24 8.05799 24.4477 8.5057 25 8.5057C25.5523 8.5057 26 8.05799 26 7.5057V1Z" fill="#CFD8E3"/>
<path fill-rule="evenodd" clip-rule="evenodd" d="M13.7825 18.1489C12.0598 19.0751 10.7397 20.183 10.07 20.892C9.86086 21.1135 9.57995 21.2205 9.30714 21.2205H3.5C2.67157 21.2205 2 21.8921 2 22.7205V37.8632C2 38.6916 2.67157 39.3632 3.5 39.3632H14.2758C15.2072 39.3632 16.1001 39.7344 16.757 40.3946L23.8819 47.5556C24.4683 48.145 25.4221 48.145 26.0085 47.5556L36.5367 36.9741C37.1189 36.3889 37.1189 35.4433 36.5367 34.8581L33.8665 32.1743C33.4769 31.7828 33.4785 31.1497 33.87 30.7601C34.2615 30.3706 34.8947 30.3722 35.2842 30.7637L37.9545 33.4475C39.313 34.8129 39.313 37.0193 37.9545 38.3847L37.3091 39.0333H46.5C47.3284 39.0333 48 38.3618 48 37.5333V22.658C48 21.8296 47.3284 21.158 46.5 21.158H40.694C40.4235 21.158 40.1448 21.0528 39.9359 20.8345C38.545 19.3813 34.6536 16.5118 30.2633 16.5118C30.0332 16.5118 29.2464 16.6657 27.9672 17.369C26.7223 18.0534 25.0825 19.2198 23.1606 21.1261L18.5138 25.7352C18.4063 25.8709 17.9093 26.5277 17.6523 27.397C17.3755 28.3328 17.3787 29.4584 18.4765 30.5472C19.5767 31.6385 20.7196 31.6439 21.6706 31.3672C22.5502 31.1113 23.214 30.617 23.3509 30.5103L29.5591 24.3523C29.9512 23.9634 30.5844 23.966 30.9733 24.3581C31.3623 24.7502 31.3597 25.3834 30.9676 25.7723L24.7169 31.9723C24.707 31.982 24.6978 31.9906 24.6896 31.9979C24.6749 32.0113 24.6629 32.0213 24.6586 32.0249C24.6037 32.0708 23.6277 32.8807 22.2293 33.2876C20.7783 33.7098 18.8157 33.7007 17.068 31.9672C15.318 30.2313 15.3065 28.2767 15.7344 26.8299C16.1456 25.4392 16.9637 24.4696 17.0097 24.4154L17.0165 24.4074C17.0216 24.4016 17.0286 24.3936 17.037 24.3845C17.0411 24.38 17.0457 24.3752 17.0505 24.3701C17.0544 24.366 17.0585 24.3618 17.0629 24.3574L21.7522 19.7062C23.7858 17.689 25.5724 16.4033 27.0036 15.6164C28.4004 14.8485 29.5393 14.5118 30.2633 14.5118C35.129 14.5118 39.3028 17.4385 41.0876 19.158H46.5C48.433 19.158 50 20.725 50 22.658V37.5333C50 39.4663 48.433 41.0333 46.5 41.0333H35.3192L27.4263 48.9662C26.0581 50.3414 23.8323 50.3414 22.4641 48.9662L15.3392 41.8052C15.0576 41.5223 14.675 41.3632 14.2758 41.3632H3.5C1.567 41.3632 0 39.7962 0 37.8632V22.7205C0 20.7875 1.567 19.2205 3.5 19.2205H8.90976C9.76656 18.3834 11.1351 17.3015 12.8355 16.3874C14.7477 15.3594 17.139 14.5118 19.7397 14.5118C20.292 14.5118 20.7397 14.9596 20.7397 15.5118C20.7397 16.0641 20.292 16.5118 19.7397 16.5118C17.5668 16.5118 15.5034 17.2238 13.7825 18.1489ZM18.4565 25.7915C18.4615 25.7868 18.4671 25.7814 18.4734 25.7753C18.4585 25.7897 18.4313 25.8151 18.4565 25.7915ZM23.2959 30.5654L23.2849 30.5768L23.2942 30.5671C23.2989 30.5622 23.3043 30.5565 23.3105 30.5504L23.2959 30.5654Z" fill="#CFD8E3"/>
<path d="M34.8913 1.58709C35.3695 1.86342 35.5334 2.47524 35.2574 2.95364L32.127 8.38047C31.851 8.85886 31.2397 9.02268 30.7615 8.74635C30.2833 8.47003 30.1194 7.85821 30.3953 7.37981L33.5258 1.95298C33.8017 1.47458 34.4131 1.31077 34.8913 1.58709Z" fill="#CFD8E3"/>
<path d="M14.7426 3.05599C14.4666 2.5776 14.6305 1.96577 15.1087 1.68945C15.5869 1.41312 16.1983 1.57694 16.4742 2.05534L19.6047 7.48216C19.8806 7.96056 19.7167 8.57238 19.2385 8.84871C18.7603 9.12503 18.149 8.96122 17.873 8.48282L14.7426 3.05599Z" fill="#CFD8E3"/>
<path d="M26 1C26 0.447715 25.5523 0 25 0C24.4477 0 24 0.447715 24 1V7.5057C24 8.05799 24.4477 8.5057 25 8.5057C25.5523 8.5057 26 8.05799 26 7.5057V1Z" fill="#CFD8E3"/>
<path fill-rule="evenodd" clip-rule="evenodd" d="M13.7825 18.1489C12.0598 19.0751 10.7397 20.183 10.07 20.892C9.86086 21.1135 9.57995 21.2205 9.30714 21.2205H3.5C2.67157 21.2205 2 21.8921 2 22.7205V37.8632C2 38.6916 2.67157 39.3632 3.5 39.3632H14.2758C15.2072 39.3632 16.1001 39.7344 16.757 40.3946L23.8819 47.5556C24.4683 48.145 25.4221 48.145 26.0085 47.5556L36.5367 36.9741C37.1189 36.3889 37.1189 35.4433 36.5367 34.8581L33.8665 32.1743C33.4769 31.7828 33.4785 31.1497 33.87 30.7601C34.2615 30.3706 34.8947 30.3722 35.2842 30.7637L37.9545 33.4475C39.313 34.8129 39.313 37.0193 37.9545 38.3847L37.3091 39.0333H46.5C47.3284 39.0333 48 38.3618 48 37.5333V22.658C48 21.8296 47.3284 21.158 46.5 21.158H40.694C40.4235 21.158 40.1448 21.0528 39.9359 20.8345C38.545 19.3813 34.6536 16.5118 30.2633 16.5118C30.0332 16.5118 29.2464 16.6657 27.9672 17.369C26.7223 18.0534 25.0825 19.2198 23.1606 21.1261L18.5138 25.7352C18.4063 25.8709 17.9093 26.5277 17.6523 27.397C17.3755 28.3328 17.3787 29.4584 18.4765 30.5472C19.5767 31.6385 20.7196 31.6439 21.6706 31.3672C22.5502 31.1113 23.214 30.617 23.3509 30.5103L29.5591 24.3523C29.9512 23.9634 30.5844 23.966 30.9733 24.3581C31.3623 24.7502 31.3597 25.3834 30.9676 25.7723L24.7169 31.9723C24.707 31.982 24.6978 31.9906 24.6896 31.9979C24.6749 32.0113 24.6629 32.0213 24.6586 32.0249C24.6037 32.0708 23.6277 32.8807 22.2293 33.2876C20.7783 33.7098 18.8157 33.7007 17.068 31.9672C15.318 30.2313 15.3065 28.2767 15.7344 26.8299C16.1456 25.4392 16.9637 24.4696 17.0097 24.4154C17.0133 24.4111 17.0235 24.3992 17.037 24.3845C17.0444 24.3764 17.0531 24.3673 17.0629 24.3574L21.7522 19.7062C23.7858 17.689 25.5724 16.4033 27.0036 15.6164C28.4004 14.8485 29.5393 14.5118 30.2633 14.5118C35.129 14.5118 39.3028 17.4385 41.0876 19.158H46.5C48.433 19.158 50 20.725 50 22.658V37.5333C50 39.4663 48.433 41.0333 46.5 41.0333H35.3192L27.4263 48.9662C26.0581 50.3414 23.8323 50.3414 22.4641 48.9662L15.3392 41.8052C15.0576 41.5223 14.675 41.3632 14.2758 41.3632H3.5C1.567 41.3632 0 39.7962 0 37.8632V22.7205C0 20.7875 1.567 19.2205 3.5 19.2205H8.90976C9.76656 18.3834 11.1351 17.3015 12.8355 16.3874C14.7477 15.3594 17.139 14.5118 19.7397 14.5118C20.292 14.5118 20.7397 14.9596 20.7397 15.5118C20.7397 16.0641 20.292 16.5118 19.7397 16.5118C17.5668 16.5118 15.5034 17.2238 13.7825 18.1489ZM18.4565 25.7915C18.4615 25.7868 18.4671 25.7814 18.4734 25.7753C18.4585 25.7897 18.4313 25.8151 18.4565 25.7915ZM23.3105 30.5504C23.3048 30.5561 23.2975 30.5637 23.2921 30.5693L23.2849 30.5768L23.2942 30.5671L23.3033 30.5576L23.3105 30.5504Z" fill="#CFD8E3"/>
<path d="M34.8913 1.58709C35.3695 1.86342 35.5334 2.47524 35.2574 2.95364L32.127 8.38047C31.851 8.85886 31.2397 9.02268 30.7615 8.74635C30.2833 8.47003 30.1194 7.85821 30.3953 7.37981L33.5258 1.95298C33.8017 1.47458 34.4131 1.31077 34.8913 1.58709Z" fill="#CFD8E3"/>
<path d="M14.7426 3.05599C14.4666 2.5776 14.6305 1.96577 15.1087 1.68945C15.5869 1.41312 16.1983 1.57694 16.4742 2.05534L19.6047 7.48216C19.8806 7.96056 19.7167 8.57238 19.2385 8.84871C18.7603 9.12503 18.149 8.96122 17.873 8.48282L14.7426 3.05599Z" fill="#CFD8E3"/>
</svg>
