<svg width="51" height="52" viewBox="0 0 51 52" fill="none" xmlns="http://www.w3.org/2000/svg">
<path fill-rule="evenodd" clip-rule="evenodd" d="M0 7.11756C0 3.73758 2.74002 0.997559 6.12 0.997559H37.74C41.12 0.997559 43.86 3.73758 43.86 7.11756V31.0876C43.86 31.6509 43.4033 32.1076 42.84 32.1076C42.2767 32.1076 41.82 31.6509 41.82 31.0876V7.11756C41.82 4.86424 39.9933 3.03756 37.74 3.03756H28.56V14.1716C28.56 14.9846 27.6898 15.5012 26.9761 15.1119L21.93 12.3594L16.8839 15.1119C16.1701 15.5012 15.3 14.9846 15.3 14.1716V3.03756H6.12C3.86668 3.03756 2.04 4.86424 2.04 7.11756V38.7376C2.04 40.9909 3.86668 42.8176 6.12 42.8176H30.09C30.6533 42.8176 31.11 43.2742 31.11 43.8376C31.11 44.4009 30.6533 44.8576 30.09 44.8576H6.12C2.74002 44.8576 0 42.1175 0 38.7376V7.11756ZM17.34 3.03756V12.5393L21.4171 10.3154C21.7368 10.1411 22.1232 10.1411 22.4429 10.3154L26.52 12.5393V3.03756H17.34Z" fill="#CFD8E3"/>
<path d="M6.12 37.7176C6.12 37.1542 6.57667 36.6976 7.14 36.6976H17.85C18.4133 36.6976 18.87 37.1542 18.87 37.7176C18.87 38.2809 18.4133 38.7376 17.85 38.7376H7.14C6.57667 38.7376 6.12 38.2809 6.12 37.7176Z" fill="#CFD8E3"/>
<path d="M43.35 43.3276C43.35 43.8909 42.8933 44.3476 42.33 44.3476C41.7667 44.3476 41.31 43.8909 41.31 43.3276C41.31 42.7642 41.7667 42.3076 42.33 42.3076C42.8933 42.3076 43.35 42.7642 43.35 43.3276Z" fill="#CFD8E3"/>
<path fill-rule="evenodd" clip-rule="evenodd" d="M42.33 34.6576C37.5417 34.6576 33.66 38.5392 33.66 43.3276C33.66 48.1159 37.5417 51.9976 42.33 51.9976C47.1183 51.9976 51 48.1159 51 43.3276C51 38.5392 47.1183 34.6576 42.33 34.6576ZM35.7 43.3276C35.7 39.6659 38.6684 36.6976 42.33 36.6976C45.9916 36.6976 48.96 39.6659 48.96 43.3276C48.96 46.9892 45.9916 49.9576 42.33 49.9576C38.6684 49.9576 35.7 46.9892 35.7 43.3276Z" fill="#CFD8E3"/>
<path fill-rule="evenodd" clip-rule="evenodd" d="M0 7.11756C0 3.73758 2.74002 0.997559 6.12 0.997559H37.74C41.12 0.997559 43.86 3.73758 43.86 7.11756V31.0876C43.86 31.6509 43.4033 32.1076 42.84 32.1076C42.2767 32.1076 41.82 31.6509 41.82 31.0876V7.11756C41.82 4.86424 39.9933 3.03756 37.74 3.03756H28.56V14.1716C28.56 14.9846 27.6898 15.5012 26.9761 15.1119L21.93 12.3594L16.8839 15.1119C16.1701 15.5012 15.3 14.9846 15.3 14.1716V3.03756H6.12C3.86668 3.03756 2.04 4.86424 2.04 7.11756V38.7376C2.04 40.9909 3.86668 42.8176 6.12 42.8176H30.09C30.6533 42.8176 31.11 43.2742 31.11 43.8376C31.11 44.4009 30.6533 44.8576 30.09 44.8576H6.12C2.74002 44.8576 0 42.1175 0 38.7376V7.11756ZM17.34 3.03756V12.5393L21.4171 10.3154C21.7368 10.1411 22.1232 10.1411 22.4429 10.3154L26.52 12.5393V3.03756H17.34Z" fill="#CFD8E3"/>
<path d="M6.12 37.7176C6.12 37.1542 6.57667 36.6976 7.14 36.6976H17.85C18.4133 36.6976 18.87 37.1542 18.87 37.7176C18.87 38.2809 18.4133 38.7376 17.85 38.7376H7.14C6.57667 38.7376 6.12 38.2809 6.12 37.7176Z" fill="#CFD8E3"/>
<path d="M43.35 43.3276C43.35 43.8909 42.8933 44.3476 42.33 44.3476C41.7667 44.3476 41.31 43.8909 41.31 43.3276C41.31 42.7642 41.7667 42.3076 42.33 42.3076C42.8933 42.3076 43.35 42.7642 43.35 43.3276Z" fill="#CFD8E3"/>
<path fill-rule="evenodd" clip-rule="evenodd" d="M42.33 34.6576C37.5417 34.6576 33.66 38.5392 33.66 43.3276C33.66 48.1159 37.5417 51.9976 42.33 51.9976C47.1183 51.9976 51 48.1159 51 43.3276C51 38.5392 47.1183 34.6576 42.33 34.6576ZM35.7 43.3276C35.7 39.6659 38.6684 36.6976 42.33 36.6976C45.9916 36.6976 48.96 39.6659 48.96 43.3276C48.96 46.9892 45.9916 49.9576 42.33 49.9576C38.6684 49.9576 35.7 46.9892 35.7 43.3276Z" fill="#CFD8E3"/>
</svg>
